#N canvas -34 23 796 510 10;
#X obj 50 52 adc~;
#X obj 49 102 env~;
#X obj 50 129 - 100;
#X obj 51 165 vu 15 120 empty empty -1 -8 0 10 -66577 -1 1 0;
#X obj 158 302 dac~;
#X obj 157 270 *~;
#X obj 197 144 vsl 15 128 0 1 0 0 empty empty empty 0 -9 0 10 -262144
-1 -1 2300 1;
#X obj 148 99 hip~;
#X obj 222 97 lop~;
#X obj 284 106 bp~;
#X obj 343 -4 spectrogram~;
#X obj 337 230 spectrogram~;
#X floatatom 168 61 10 0 0 0 - - -;
#X floatatom 241 61 5 0 0 0 - - -;
#X floatatom 303 61 5 0 0 0 - - -;
#X floatatom 306 84 5 0 0 0 - - -;
#X obj 278 33 noise~;
#X connect 0 0 1 0;
#X connect 0 0 10 0;
#X connect 0 0 7 0;
#X connect 0 0 8 0;
#X connect 1 0 2 0;
#X connect 2 0 3 0;
#X connect 5 0 4 0;
#X connect 6 0 5 1;
#X connect 7 0 5 0;
#X connect 9 0 11 0;
#X connect 12 0 7 1;
#X connect 13 0 8 1;
#X connect 14 0 9 1;
#X connect 15 0 9 2;
#X connect 16 0 9 0;
