#N canvas 69 86 598 422 10;
#X obj 17 11 adc~;
#X obj 19 78 *~;
#X obj 24 156 *~;
#X obj 26 201 dac~;
#X obj 114 32 vsl 15 128 0 1 0 0 empty empty empty 0 -9 0 10 -262144
-1 -1 0 1;
#X obj 64 60 osc~;
#X floatatom 62 26 5 0 0 0 - - -;
#X text 15 -21 ring mod;
#X obj 203 -6 adc~;
#X obj 204 36 *~ 4;
#X floatatom 246 5 5 0 0 0 - - -;
#X obj 204 81 clip~ -1 1;
#X obj 203 132 overdrive~;
#X obj 202 169 clip~ -1 1;
#X floatatom 283 103 5 0 0 0 - - -;
#X obj 230 238 *~;
#X obj 232 283 dac~;
#X obj 320 114 vsl 15 128 0 1 0 0 empty empty empty 0 -9 0 10 -262144
-1 -1 0 1;
#X text 201 -36 overdrive;
#X text 397 -10 bitcrush;
#X obj 397 16 adc~;
#X obj 398 63 samphold~;
#X obj 404 184 *~;
#X obj 406 229 dac~;
#X obj 494 60 vsl 15 128 0 1 0 0 empty empty empty 0 -9 0 10 -262144
-1 -1 12700 1;
#X obj 449 32 phasor~;
#X floatatom 460 0 10 0 0 0 - - -;
#X connect 0 0 1 0;
#X connect 1 0 2 0;
#X connect 2 0 3 0;
#X connect 2 0 3 1;
#X connect 4 0 2 1;
#X connect 5 0 1 1;
#X connect 6 0 5 0;
#X connect 8 0 9 0;
#X connect 9 0 11 0;
#X connect 10 0 9 1;
#X connect 11 0 12 0;
#X connect 12 0 13 0;
#X connect 13 0 15 0;
#X connect 14 0 12 1;
#X connect 15 0 16 0;
#X connect 15 0 16 1;
#X connect 17 0 15 1;
#X connect 20 0 21 0;
#X connect 21 0 22 0;
#X connect 22 0 23 0;
#X connect 22 0 23 1;
#X connect 24 0 22 1;
#X connect 25 0 21 1;
#X connect 26 0 25 0;
