#N canvas 0 23 789 418 10;
#X obj 66 38 adc~;
#X obj 65 86 delwrite~ foo 3000;
#X obj 68 213 vd~ foo;
#X obj 69 268 *~;
#X obj 100 245 hsl 128 15 0 1 0 0 empty empty empty -2 -8 0 10 -262144
-1 -1 0 1;
#X obj 65 315 dac~;
#X obj 227 78 phasor~;
#X floatatom 233 46 5 0 0 0 - - -;
#X obj 226 144 *~;
#X floatatom 253 111 5 0 0 0 - - -;
#X obj 226 186 +~;
#X floatatom 254 160 5 0 0 0 - - -;
#X obj 317 252 snapshot~;
#X obj 313 207 metro 30;
#X floatatom 320 285 5 0 0 0 - - -;
#X obj 309 178 tgl 15 0 empty empty empty 17 7 0 10 -262144 -1 -1 0
1;
#X text 70 6 pitch shift;
#X text 441 12 falanger;
#X obj 454 39 adc~;
#X obj 458 196 vd~ bar;
#X obj 561 93 osc~;
#X floatatom 562 63 5 0 0 0 - - -;
#X obj 562 129 *~;
#X floatatom 610 108 5 0 0 0 - - -;
#X obj 562 164 +~;
#X floatatom 598 151 5 0 0 0 - - -;
#X obj 457 265 *~;
#X obj 488 242 hsl 128 15 0 1 0 0 empty empty empty -2 -8 0 10 -262144
-1 -1 0 1;
#X obj 453 312 dac~;
#X obj 455 72 delwrite~ bar 3000;
#X connect 0 0 1 0;
#X connect 2 0 3 0;
#X connect 3 0 5 0;
#X connect 3 0 5 1;
#X connect 4 0 3 1;
#X connect 6 0 8 0;
#X connect 7 0 6 0;
#X connect 8 0 10 0;
#X connect 9 0 8 1;
#X connect 10 0 12 0;
#X connect 10 0 2 0;
#X connect 11 0 10 1;
#X connect 12 0 14 0;
#X connect 13 0 12 0;
#X connect 15 0 13 0;
#X connect 18 0 29 0;
#X connect 19 0 26 0;
#X connect 20 0 22 0;
#X connect 21 0 20 0;
#X connect 22 0 24 0;
#X connect 23 0 22 1;
#X connect 24 0 19 0;
#X connect 25 0 24 1;
#X connect 26 0 28 0;
#X connect 26 0 28 1;
#X connect 27 0 26 1;
