#N canvas 26 23 759 471 10;
#X obj 65 34 adc~;
#X obj 76 85 delwrite~ foo 3000;
#X obj 86 138 delread~ foo 2000;
#X obj 75 233 dac~;
#X obj 75 200 *~;
#X obj 114 176 hsl 128 15 0 1 0 0 empty empty empty -2 -8 0 10 -262144
-1 -1 0 1;
#X text 66 9 delay simple;
#X obj 270 35 adc~;
#X obj 280 234 dac~;
#X obj 280 201 *~;
#X obj 319 177 hsl 128 15 0 1 0 0 empty empty empty -2 -8 0 10 -262144
-1 -1 0 1;
#X obj 281 86 delwrite~ bar 3000;
#X obj 282 128 delread~ bar 50;
#X obj 387 124 delread~ bar 74;
#X obj 494 123 delread~ bar 103;
#X obj 601 125 delread~ bar 140;
#X text 275 16 chorus;
#X floatatom 191 108 5 0 0 0 - - -;
#X text 57 283 reverb;
#X obj 62 328 adc~;
#X obj 71 363 delwrite~ baz 300;
#X obj 72 410 delread~ baz 50;
#X obj 15 392 *~ 0.7;
#X obj 73 496 dac~;
#X obj 73 463 *~;
#X obj 112 439 hsl 128 15 0 1 0 0 empty empty empty -2 -8 0 10 -262144
-1 -1 0 1;
#X floatatom 22 357 5 0 0 0 - - -;
#X floatatom 95 385 5 0 0 0 - - -;
#X obj 369 280 adc~;
#X obj 380 448 dac~;
#X obj 380 415 *~;
#X obj 419 391 hsl 128 15 0 1 0 0 empty empty empty -2 -8 0 10 -262144
-1 -1 0 1;
#X floatatom 402 337 5 0 0 0 - - -;
#X obj 379 362 delread~ qux 10000;
#X obj 322 344 *~ 1;
#X obj 378 315 delwrite~ qux 10000;
#X text 364 252 looper;
#X connect 0 0 1 0;
#X connect 0 0 4 0;
#X connect 2 0 4 0;
#X connect 4 0 3 0;
#X connect 4 0 3 1;
#X connect 5 0 4 1;
#X connect 7 0 9 0;
#X connect 7 0 11 0;
#X connect 9 0 8 0;
#X connect 9 0 8 1;
#X connect 10 0 9 1;
#X connect 12 0 9 0;
#X connect 13 0 9 0;
#X connect 14 0 9 0;
#X connect 15 0 9 0;
#X connect 17 0 2 0;
#X connect 19 0 20 0;
#X connect 21 0 22 0;
#X connect 21 0 24 0;
#X connect 22 0 20 0;
#X connect 24 0 23 0;
#X connect 24 0 23 1;
#X connect 25 0 24 1;
#X connect 26 0 22 1;
#X connect 27 0 21 0;
#X connect 28 0 35 0;
#X connect 30 0 29 0;
#X connect 30 0 29 1;
#X connect 31 0 30 1;
#X connect 32 0 33 0;
#X connect 33 0 30 0;
#X connect 33 0 34 0;
#X connect 34 0 35 0;
