#N canvas -5 23 786 521 10;
#N canvas 0 22 450 278 (subpatch) 0;
#X array sample 100 float 2;
#X coords 0 1 100 -1 200 140 1;
#X restore 447 71 graph;
#X obj 116 64 openpanel;
#X obj 113 32 bng 15 250 50 0 empty empty empty 17 7 0 10 -262144 -1
-1;
#X msg 116 101 read -resize \$1 sample;
#X obj 117 145 soundfiler;
#X floatatom 154 182 15 0 0 0 - - -;
#X obj 123 222 expr 44100 / $f1;
#X floatatom 124 263 15 0 0 0 - - -;
#X obj 124 314 phasor~;
#X obj 125 357 *~;
#X obj 125 387 tabread4~ sample;
#X obj 126 440 *~;
#X obj 161 415 hsl 128 15 0 1 0 0 empty empty empty -2 -8 0 10 -262144
-1 -1 12700 1;
#X obj 124 486 dac~;
#X floatatom 253 270 15 0 0 0 - - -;
#X obj 197 147 bng 15 250 50 0 empty empty empty 17 7 0 10 -262144
-1 -1;
#X floatatom 209 314 5 0 0 0 - - -;
#X obj 339 324 metro 200;
#X obj 339 302 tgl 15 0 empty empty empty 17 7 0 10 -262144 -1 -1 1
1;
#X obj 339 397 select 0 1 2 3 4 5 6 7;
#X floatatom 337 431 5 0 0 0 - - -;
#X floatatom 352 454 5 0 0 0 - - -;
#X obj 338 358 counter 3;
#X floatatom 385 426 5 0 0 0 - - -;
#X floatatom 400 449 5 0 0 0 - - -;
#X floatatom 387 291 5 0 0 0 - - -;
#X floatatom 333 482 5 0 0 0 - - -;
#X floatatom 348 500 5 0 0 0 - - -;
#X floatatom 381 482 5 0 0 0 - - -;
#X floatatom 402 499 5 0 0 0 - - -;
#X connect 1 0 3 0;
#X connect 2 0 1 0;
#X connect 3 0 4 0;
#X connect 4 0 5 0;
#X connect 5 0 6 0;
#X connect 5 0 9 1;
#X connect 6 0 7 0;
#X connect 6 0 14 0;
#X connect 7 0 8 0;
#X connect 8 0 9 0;
#X connect 9 0 10 0;
#X connect 10 0 11 0;
#X connect 11 0 13 0;
#X connect 11 0 13 1;
#X connect 12 0 11 1;
#X connect 15 0 5 0;
#X connect 16 0 8 1;
#X connect 17 0 22 0;
#X connect 18 0 17 0;
#X connect 19 0 20 0;
#X connect 19 0 26 0;
#X connect 19 1 21 0;
#X connect 19 1 27 0;
#X connect 19 2 23 0;
#X connect 19 2 28 0;
#X connect 19 3 24 0;
#X connect 19 3 29 0;
#X connect 20 0 16 0;
#X connect 21 0 16 0;
#X connect 22 0 19 0;
#X connect 23 0 16 0;
#X connect 24 0 16 0;
#X connect 25 0 17 1;
#X connect 26 0 8 0;
#X connect 27 0 8 0;
#X connect 28 0 8 0;
#X connect 29 0 8 0;
