#N canvas 844 236 648 321 10;
#X declare -lib mrpeach;
#X obj 32 40 import mrpeach;
#X obj 31 199 udpsend;
#X floatatom 194 118 5 0 0 0 - - -;
#X obj 195 171 packOSC;
#X msg 32 101 connect localhost 12000;
#X obj 440 101 udpreceive 12001;
#X obj 440 128 unpackOSC;
#X floatatom 439 182 5 0 0 0 - - -;
#X obj 439 155 routeOSC /mouseX;
#X msg 194 143 send /x \$1;
#X floatatom 270 119 5 0 0 0 - - -;
#X msg 269 143 send /y \$1;
#X floatatom 342 117 5 0 0 0 - - -;
#X msg 343 142 send /t \$1;
#X connect 2 0 9 0;
#X connect 3 0 1 0;
#X connect 4 0 1 0;
#X connect 5 0 6 0;
#X connect 6 0 8 0;
#X connect 8 0 7 0;
#X connect 9 0 3 0;
#X connect 10 0 11 0;
#X connect 11 0 3 0;
#X connect 12 0 13 0;
#X connect 13 0 3 0;
