#N canvas -4 23 800 515 10;
#X floatatom 131 61 5 0 0 0 - - -;
#X floatatom 198 62 5 0 0 0 - - -;
#X floatatom 129 132 5 0 0 0 - - -;
#X obj 89 85 bng 15 250 50 0 empty empty empty 17 7 0 10 -262144 -1
-1;
#X obj 127 180 print;
#X obj 193 129 - 20;
#X floatatom 194 183 5 0 0 0 - - -;
#X obj 131 97 +;
#X floatatom 214 99 5 0 0 0 - - -;
#X obj 194 213 /;
#X floatatom 247 179 5 0 0 0 - - -;
#X floatatom 196 255 5 0 0 0 - - -;
#X text 100 33 dataflow y operaciones matemáticas;
#X obj 350 92 > 40;
#X floatatom 345 52 5 0 0 0 - - -;
#X floatatom 346 141 5 0 0 0 - - -;
#X obj 392 135 tgl 15 0 empty empty empty 17 7 0 10 -262144 -1 -1 0
1;
#X floatatom 382 66 5 0 0 0 - - -;
#X floatatom 392 155 5 0 0 0 - - -;
#X text 343 32 lógica;
#X obj 506 94 metro 500;
#X obj 535 121 bng 15 250 50 0 empty empty empty 17 7 0 10 -262144
-1 -1;
#X obj 504 66 tgl 15 0 empty empty empty 17 7 0 10 -262144 -1 -1 1
1;
#X floatatom 557 67 5 0 0 0 - - -;
#X obj 501 162 counter;
#X floatatom 502 198 5 0 0 0 - - -;
#X obj 564 162 counter 8;
#X floatatom 566 196 5 0 0 0 - - -;
#X text 500 38 metro \, counter select;
#X obj 567 233 select 0 1 2 3 4 5 6 7 8;
#X obj 567 267 bng 15 250 50 0 empty empty empty 17 7 0 10 -262144
-1 -1;
#X obj 586 267 bng 15 250 50 0 empty empty empty 17 7 0 10 -262144
-1 -1;
#X obj 606 266 bng 15 250 50 0 empty empty empty 17 7 0 10 -262144
-1 -1;
#X obj 625 267 bng 15 250 50 0 empty empty empty 17 7 0 10 -262144
-1 -1;
#X obj 644 268 bng 15 250 50 0 empty empty empty 17 7 0 10 -262144
-1 -1;
#X obj 663 268 bng 15 250 50 0 empty empty empty 17 7 0 10 -262144
-1 -1;
#X obj 683 267 bng 15 250 50 0 empty empty empty 17 7 0 10 -262144
-1 -1;
#X obj 702 268 bng 15 250 50 0 empty empty empty 17 7 0 10 -262144
-1 -1;
#X obj 724 268 bng 15 250 50 0 empty empty empty 17 7 0 10 -262144
-1 -1;
#X obj 110 359 key;
#X floatatom 109 389 5 0 0 0 - - -;
#X obj 107 415 select 97 115;
#X obj 106 446 bng 15 250 50 0 empty empty empty 17 7 0 10 -262144
-1 -1;
#X obj 144 444 bng 15 250 50 0 empty empty empty 17 7 0 10 -262144
-1 -1;
#X text 106 331 obtener input del teclado;
#X connect 0 0 7 0;
#X connect 1 0 7 1;
#X connect 2 0 4 0;
#X connect 3 0 7 0;
#X connect 5 0 6 0;
#X connect 6 0 9 0;
#X connect 7 0 2 0;
#X connect 7 0 5 0;
#X connect 8 0 5 1;
#X connect 9 0 11 0;
#X connect 10 0 9 1;
#X connect 13 0 15 0;
#X connect 13 0 16 0;
#X connect 14 0 13 0;
#X connect 16 0 18 0;
#X connect 17 0 13 1;
#X connect 20 0 21 0;
#X connect 20 0 26 0;
#X connect 22 0 20 0;
#X connect 23 0 20 1;
#X connect 24 0 25 0;
#X connect 26 0 27 0;
#X connect 26 0 24 0;
#X connect 27 0 29 0;
#X connect 29 0 30 0;
#X connect 29 1 31 0;
#X connect 29 2 32 0;
#X connect 29 3 33 0;
#X connect 29 4 34 0;
#X connect 29 5 35 0;
#X connect 29 6 36 0;
#X connect 29 7 37 0;
#X connect 29 8 38 0;
#X connect 39 0 40 0;
#X connect 40 0 41 0;
#X connect 41 0 42 0;
#X connect 41 1 43 0;
