#N canvas 542 38 1222 912 10;
#X declare -lib mrpeach;
#X obj 21 103 import mrpeach;
#X obj 23 137 udpreceive 9001;
#X text 23 48 TouchOSC primero \, conectar TouchOSC a la dirección
de la computadora;
#X obj 23 166 unpackOSC;
#X text 17 249 - - - - - - - - - - - - - - - - - - - - - - - - - -
- - -;
#X obj 25 299 ctlin;
#X text 23 272 controles midi;
#X text 21 223 routear los mensajes;
#X obj 23 195 route /1 /2;
#X floatatom 24 333 5 0 0 0 - - -;
#X floatatom 37 356 5 0 0 0 - - -;
#X floatatom 54 381 5 0 0 0 - - -;
#X text 68 331 valor;
#X text 78 355 número del controlador;
#X text 95 381 canal midi;
#X obj 234 298 ctlin 1;
#X text 289 298 mensajes del controlador 1;
#X floatatom 234 339 5 0 0 0 - - -;
#X text 278 337 valor;
#X text 19 413 - - - - - - - - - - - - - - - - - - - - - - - - - -
- - -;
#X text 493 58 instrumento midi;
#X obj 502 91 notein;
#X floatatom 502 122 5 0 0 0 - - -;
#X floatatom 519 147 5 0 0 0 - - -;
#X floatatom 536 173 5 0 0 0 - - -;
#X text 554 116 nota midi;
#X text 554 116 comment;
#X text 565 145 velocidad;
#X text 588 175 canal midi;
#X obj 33 632 hid;
#X msg 33 470 refresh;
#X msg 44 502 print;
#X text 95 470 1) refresca las conexiones;
#X text 97 504 2) imprimir hids;
#X msg 52 559 open \$1;
#X floatatom 52 534 5 0 0 0 - - -;
#X text 98 533 3) conectar a la hid que quieres;
#X text 465 52 | | | | | | | | | | | | | | | | | | | | | | | | | |
| | | | | | | | | | | |;
#X obj 60 598 tgl 15 0 empty empty empty 17 7 0 10 -262144 -1 -1 0
1;
#X text 98 594 4) iniciar;
#X obj 32 672 route key abs;
#X text 130 675 routear los mensajes;
#X text 26 436 HID;
#X text 20 10 contorladores;
#X obj 500 295 fiddle~ 1024 1 20 3;
#X text 486 207 - - - - - - - - - - - - - - - - - - - - - - - - - -
- - -;
#X obj 500 258 adc~;
#X text 549 257 conecta a fuente de audio;
#X text 499 231 fiddle;
#X floatatom 500 324 5 0 0 0 - - -;
#X text 546 323 pitch "cocinado" en MIDI;
#X obj 527 353 bng 15 250 50 0 empty empty empty 17 7 0 10 -262144
-1 -1;
#X text 552 352 ataque;
#X obj 556 378 unpack f f;
#X floatatom 557 404 5 0 0 0 - - -;
#X floatatom 614 433 5 0 0 0 - - -;
#X text 599 400 pitch "crudo" en MIDI;
#X text 658 433 amplitud en DB;
#X floatatom 586 469 5 0 0 0 - - -;
#X text 624 471 amplitud en DB;
#X obj 759 331 route 1 2 3;
#X obj 759 360 unpack f f;
#X floatatom 759 387 5 0 0 0 - - -;
#X floatatom 816 413 5 0 0 0 - - -;
#X text 801 389 frecuencia del primer parcial en Hz;
#X text 860 413 amplitud del componene en V;
#X obj 781 446 unpack f f;
#X floatatom 781 473 5 0 0 0 - - -;
#X floatatom 838 499 5 0 0 0 - - -;
#X text 882 499 amplitud del componene en V;
#X text 823 475 frecuencia del segundo parcial en Hz;
#X obj 805 527 unpack f f;
#X floatatom 805 554 5 0 0 0 - - -;
#X floatatom 862 580 5 0 0 0 - - -;
#X text 906 580 amplitud del componene en V;
#X text 847 556 frecuencia del tercer parcial en Hz;
#X connect 1 0 3 0;
#X connect 3 0 8 0;
#X connect 5 0 9 0;
#X connect 5 1 10 0;
#X connect 5 2 11 0;
#X connect 15 0 17 0;
#X connect 21 0 22 0;
#X connect 21 1 23 0;
#X connect 21 2 24 0;
#X connect 29 0 40 0;
#X connect 30 0 29 0;
#X connect 31 0 29 0;
#X connect 34 0 29 0;
#X connect 35 0 34 0;
#X connect 38 0 29 0;
#X connect 44 0 49 0;
#X connect 44 1 51 0;
#X connect 44 2 53 0;
#X connect 44 3 58 0;
#X connect 44 4 60 0;
#X connect 46 0 44 0;
#X connect 53 0 54 0;
#X connect 53 1 55 0;
#X connect 60 0 61 0;
#X connect 60 1 66 0;
#X connect 60 2 71 0;
#X connect 61 0 62 0;
#X connect 61 1 63 0;
#X connect 66 0 67 0;
#X connect 66 1 68 0;
#X connect 71 0 72 0;
#X connect 71 1 73 0;
