#N canvas 16 42 765 508 10;
#X obj 25 79 osc~;
#X obj 420 71 phasor~;
#X obj 495 74 noise~;
#X obj 560 72 click~;
#X obj 175 250 spectrogram~;
#X obj 27 196 dac~;
#X obj 29 156 *~;
#X floatatom 29 27 5 0 0 0 - - -;
#X floatatom 424 25 5 0 0 0 - - -;
#X obj 67 106 osc~;
#X floatatom 67 82 5 0 0 0 - - -;
#X text 25 4 amplitud modulada;
#X obj 285 158 osc~;
#X obj 286 189 *~;
#X obj 282 224 dac~;
#X obj 338 175 tgl 15 0 empty empty empty 17 7 0 10 -262144 -1 -1 1
1;
#X obj 278 52 osc~;
#X obj 278 91 *~;
#X obj 281 130 +~;
#X floatatom 277 29 5 0 0 0 - - -;
#X floatatom 308 75 5 0 0 0 - - -;
#X floatatom 310 120 5 0 0 0 - - -;
#X text 259 7 frecuencia modulada;
#X connect 0 0 6 0;
#X connect 7 0 0 0;
#X connect 8 0 1 0;
#X connect 9 0 6 1;
#X connect 10 0 9 0;
#X connect 12 0 13 0;
#X connect 13 0 14 0;
#X connect 13 0 14 1;
#X connect 13 0 4 0;
#X connect 15 0 13 1;
#X connect 16 0 17 0;
#X connect 17 0 18 0;
#X connect 18 0 12 0;
#X connect 19 0 16 0;
#X connect 20 0 17 1;
#X connect 21 0 18 1;
