#N canvas 24 48 768 511 10;
#X obj 37 59 metro;
#X obj 36 39 tgl 15 0 empty empty empty 17 7 0 10 -262144 -1 -1 0 1
;
#X floatatom 66 33 5 0 0 0 - - -;
#X obj 35 98 counter 7;
#X floatatom 48 125 5 0 0 0 - - -;
#X obj 35 162 select 0 1 2 3 4 5 6 7;
#X obj 26 186 bng 15 250 50 0 empty empty empty 17 7 0 10 -262144 -1
-1;
#X obj 52 185 bng 15 250 50 0 empty empty empty 17 7 0 10 -262144 -1
-1;
#X obj 74 185 bng 15 250 50 0 empty empty empty 17 7 0 10 -262144 -1
-1;
#X obj 95 188 bng 15 250 50 0 empty empty empty 17 7 0 10 -262144 -1
-1;
#X obj 118 191 bng 15 250 50 0 empty empty empty 17 7 0 10 -262144
-1 -1;
#X obj 144 190 bng 15 250 50 0 empty empty empty 17 7 0 10 -262144
-1 -1;
#X obj 166 190 bng 15 250 50 0 empty empty empty 17 7 0 10 -262144
-1 -1;
#X obj 191 193 bng 15 250 50 0 empty empty empty 17 7 0 10 -262144
-1 -1;
#X obj 10 366 click~;
#X obj 8 469 dac~;
#X obj 7 230 gate;
#X obj 7 207 tgl 15 0 empty empty empty 17 7 0 10 -262144 -1 -1 1 1
;
#X obj 49 230 gate;
#X obj 49 207 tgl 15 0 empty empty empty 17 7 0 10 -262144 -1 -1 1
1;
#X obj 91 231 gate;
#X obj 91 208 tgl 15 0 empty empty empty 17 7 0 10 -262144 -1 -1 0
1;
#X obj 136 233 gate;
#X obj 136 210 tgl 15 0 empty empty empty 17 7 0 10 -262144 -1 -1 1
1;
#X obj 180 236 gate;
#X obj 180 213 tgl 15 0 empty empty empty 17 7 0 10 -262144 -1 -1 0
1;
#X obj 222 236 gate;
#X obj 222 213 tgl 15 0 empty empty empty 17 7 0 10 -262144 -1 -1 1
1;
#X obj 264 237 gate;
#X obj 264 214 tgl 15 0 empty empty empty 17 7 0 10 -262144 -1 -1 0
1;
#X obj 309 239 gate;
#X obj 9 414 *~ 50;
#X floatatom 25 264 5 0 0 0 - - -;
#X floatatom 61 262 5 0 0 0 - - -;
#X floatatom 100 263 5 0 0 0 - - -;
#X floatatom 136 265 5 0 0 0 - - -;
#X floatatom 174 266 5 0 0 0 - - -;
#X floatatom 209 267 5 0 0 0 - - -;
#X floatatom 246 267 5 0 0 0 - - -;
#X floatatom 284 266 5 0 0 0 - - -;
#X obj 86 355 osc~;
#X obj 88 399 *~;
#X obj 120 381 tgl 15 0 empty empty empty 17 7 0 10 -262144 -1 -1 0
1;
#N canvas 13 443 462 436 aleatorio 0;
#X floatatom 110 55 5 0 0 0 - - -;
#X obj 112 108 * 1;
#X floatatom 114 163 5 0 0 0 - - -;
#X obj 151 105 * 9;
#X obj 152 133 / 8;
#X floatatom 153 161 5 0 0 0 - - -;
#X obj 184 105 * 5;
#X obj 185 132 / 4;
#X floatatom 190 164 5 0 0 0 - - -;
#X obj 218 105 * 3;
#X obj 218 132 / 2;
#X floatatom 227 165 5 0 0 0 - - -;
#X obj 259 107 * 5;
#X obj 259 136 / 3;
#X floatatom 264 166 5 0 0 0 - - -;
#X obj 307 106 * 2;
#X floatatom 311 163 5 0 0 0 - - -;
#X obj 27 93 random 6;
#X obj 27 57 bng 15 250 50 0 empty empty empty 17 7 0 10 -262144 -1
-1;
#X floatatom 31 127 5 0 0 0 - - -;
#X obj 115 217 switch 6;
#X floatatom 115 253 5 0 0 0 - - -;
#X obj 29 18 inlet foo;
#X obj 123 16 inlet bar;
#X obj 131 305 outlet baz;
#X connect 0 0 1 0;
#X connect 0 0 3 0;
#X connect 0 0 6 0;
#X connect 0 0 9 0;
#X connect 0 0 12 0;
#X connect 0 0 15 0;
#X connect 1 0 2 0;
#X connect 2 0 20 1;
#X connect 3 0 4 0;
#X connect 4 0 5 0;
#X connect 5 0 20 2;
#X connect 6 0 7 0;
#X connect 7 0 8 0;
#X connect 8 0 20 3;
#X connect 9 0 10 0;
#X connect 10 0 11 0;
#X connect 11 0 20 4;
#X connect 12 0 13 0;
#X connect 13 0 14 0;
#X connect 14 0 20 5;
#X connect 15 0 16 0;
#X connect 16 0 20 6;
#X connect 17 0 19 0;
#X connect 18 0 17 0;
#X connect 18 0 0 0;
#X connect 19 0 20 0;
#X connect 20 0 21 0;
#X connect 21 0 24 0;
#X connect 22 0 18 0;
#X connect 23 0 0 0;
#X restore 407 317 pd aleatorio;
#X obj 309 216 tgl 15 0 empty empty empty 17 7 0 10 -262144 -1 -1 0
1;
#X obj 406 288 bng 15 250 50 0 empty empty empty 17 7 0 10 -262144
-1 -1;
#X floatatom 406 354 5 0 0 0 - - -;
#X floatatom 475 288 5 0 0 0 - - -;
#N canvas 13 443 462 436 aleatorio 0;
#X floatatom 110 55 5 0 0 0 - - -;
#X obj 112 108 * 1;
#X floatatom 114 163 5 0 0 0 - - -;
#X obj 151 105 * 9;
#X obj 152 133 / 8;
#X floatatom 153 161 5 0 0 0 - - -;
#X obj 184 105 * 5;
#X obj 185 132 / 4;
#X floatatom 190 164 5 0 0 0 - - -;
#X obj 218 105 * 3;
#X obj 218 132 / 2;
#X floatatom 227 165 5 0 0 0 - - -;
#X obj 259 107 * 5;
#X obj 259 136 / 3;
#X floatatom 264 166 5 0 0 0 - - -;
#X obj 307 106 * 2;
#X floatatom 311 163 5 0 0 0 - - -;
#X obj 27 93 random 6;
#X obj 27 57 bng 15 250 50 0 empty empty empty 17 7 0 10 -262144 -1
-1;
#X floatatom 31 127 5 0 0 0 - - -;
#X obj 115 217 switch 6;
#X floatatom 115 253 5 0 0 0 - - -;
#X obj 29 18 inlet foo;
#X obj 123 16 inlet bar;
#X obj 131 305 outlet baz;
#X connect 0 0 1 0;
#X connect 0 0 3 0;
#X connect 0 0 6 0;
#X connect 0 0 9 0;
#X connect 0 0 12 0;
#X connect 0 0 15 0;
#X connect 1 0 2 0;
#X connect 2 0 20 1;
#X connect 3 0 4 0;
#X connect 4 0 5 0;
#X connect 5 0 20 2;
#X connect 6 0 7 0;
#X connect 7 0 8 0;
#X connect 8 0 20 3;
#X connect 9 0 10 0;
#X connect 10 0 11 0;
#X connect 11 0 20 4;
#X connect 12 0 13 0;
#X connect 13 0 14 0;
#X connect 14 0 20 5;
#X connect 15 0 16 0;
#X connect 16 0 20 6;
#X connect 17 0 19 0;
#X connect 18 0 17 0;
#X connect 18 0 0 0;
#X connect 19 0 20 0;
#X connect 20 0 21 0;
#X connect 21 0 24 0;
#X connect 22 0 18 0;
#X connect 23 0 0 0;
#X restore 521 316 pd aleatorio;
#X obj 520 287 bng 15 250 50 0 empty empty empty 17 7 0 10 -262144
-1 -1;
#X floatatom 520 353 5 0 0 0 - - -;
#X floatatom 589 287 5 0 0 0 - - -;
#N canvas 13 443 462 436 aleatorio 0;
#X floatatom 110 55 5 0 0 0 - - -;
#X obj 112 108 * 1;
#X floatatom 114 163 5 0 0 0 - - -;
#X obj 151 105 * 9;
#X obj 152 133 / 8;
#X floatatom 153 161 5 0 0 0 - - -;
#X obj 184 105 * 5;
#X obj 185 132 / 4;
#X floatatom 190 164 5 0 0 0 - - -;
#X obj 218 105 * 3;
#X obj 218 132 / 2;
#X floatatom 227 165 5 0 0 0 - - -;
#X obj 259 107 * 5;
#X obj 259 136 / 3;
#X floatatom 264 166 5 0 0 0 - - -;
#X obj 307 106 * 2;
#X floatatom 311 163 5 0 0 0 - - -;
#X obj 27 93 random 6;
#X obj 27 57 bng 15 250 50 0 empty empty empty 17 7 0 10 -262144 -1
-1;
#X floatatom 31 127 5 0 0 0 - - -;
#X obj 115 217 switch 6;
#X floatatom 115 253 5 0 0 0 - - -;
#X obj 29 18 inlet foo;
#X obj 123 16 inlet bar;
#X obj 131 305 outlet baz;
#X connect 0 0 1 0;
#X connect 0 0 3 0;
#X connect 0 0 6 0;
#X connect 0 0 9 0;
#X connect 0 0 12 0;
#X connect 0 0 15 0;
#X connect 1 0 2 0;
#X connect 2 0 20 1;
#X connect 3 0 4 0;
#X connect 4 0 5 0;
#X connect 5 0 20 2;
#X connect 6 0 7 0;
#X connect 7 0 8 0;
#X connect 8 0 20 3;
#X connect 9 0 10 0;
#X connect 10 0 11 0;
#X connect 11 0 20 4;
#X connect 12 0 13 0;
#X connect 13 0 14 0;
#X connect 14 0 20 5;
#X connect 15 0 16 0;
#X connect 16 0 20 6;
#X connect 17 0 19 0;
#X connect 18 0 17 0;
#X connect 18 0 0 0;
#X connect 19 0 20 0;
#X connect 20 0 21 0;
#X connect 21 0 24 0;
#X connect 22 0 18 0;
#X connect 23 0 0 0;
#X restore 634 310 pd aleatorio;
#X obj 633 281 bng 15 250 50 0 empty empty empty 17 7 0 10 -262144
-1 -1;
#X floatatom 633 347 5 0 0 0 - - -;
#X floatatom 702 281 5 0 0 0 - - -;
#N canvas 150 211 462 436 aleatorio 0;
#X floatatom 110 55 5 0 0 0 - - -;
#X obj 112 108 * 1;
#X floatatom 114 163 5 0 0 0 - - -;
#X obj 151 105 * 9;
#X obj 152 133 / 8;
#X floatatom 153 161 5 0 0 0 - - -;
#X obj 184 105 * 5;
#X obj 185 132 / 4;
#X floatatom 190 164 5 0 0 0 - - -;
#X obj 218 105 * 3;
#X obj 218 132 / 2;
#X floatatom 227 165 5 0 0 0 - - -;
#X obj 259 107 * 5;
#X obj 259 136 / 3;
#X floatatom 264 166 5 0 0 0 - - -;
#X obj 307 106 * 2;
#X floatatom 311 163 5 0 0 0 - - -;
#X obj 27 93 random 6;
#X obj 27 57 bng 15 250 50 0 empty empty empty 17 7 0 10 -262144 -1
-1;
#X floatatom 31 127 5 0 0 0 - - -;
#X obj 115 217 switch 6;
#X floatatom 115 253 5 0 0 0 - - -;
#X obj 29 18 inlet foo;
#X obj 123 16 inlet bar;
#X obj 131 305 outlet baz;
#X connect 0 0 1 0;
#X connect 0 0 3 0;
#X connect 0 0 6 0;
#X connect 0 0 9 0;
#X connect 0 0 12 0;
#X connect 0 0 15 0;
#X connect 1 0 2 0;
#X connect 2 0 20 1;
#X connect 3 0 4 0;
#X connect 4 0 5 0;
#X connect 5 0 20 2;
#X connect 6 0 7 0;
#X connect 7 0 8 0;
#X connect 8 0 20 3;
#X connect 9 0 10 0;
#X connect 10 0 11 0;
#X connect 11 0 20 4;
#X connect 12 0 13 0;
#X connect 13 0 14 0;
#X connect 14 0 20 5;
#X connect 15 0 16 0;
#X connect 16 0 20 6;
#X connect 17 0 19 0;
#X connect 18 0 17 0;
#X connect 18 0 0 0;
#X connect 19 0 20 0;
#X connect 20 0 21 0;
#X connect 21 0 24 0;
#X connect 22 0 18 0;
#X connect 23 0 0 0;
#X restore 289 318 pd aleatorio;
#X obj 288 289 bng 15 250 50 0 empty empty empty 17 7 0 10 -262144
-1 -1;
#X floatatom 288 355 5 0 0 0 - - -;
#X floatatom 357 289 5 0 0 0 - - -;
#X floatatom 413 217 5 0 0 0 - - -;
#X connect 0 0 3 0;
#X connect 1 0 0 0;
#X connect 2 0 0 1;
#X connect 3 0 4 0;
#X connect 3 0 5 0;
#X connect 5 0 6 0;
#X connect 5 1 7 0;
#X connect 5 2 8 0;
#X connect 5 3 9 0;
#X connect 5 4 10 0;
#X connect 5 5 11 0;
#X connect 5 6 12 0;
#X connect 5 7 13 0;
#X connect 6 0 16 1;
#X connect 6 0 32 0;
#X connect 7 0 18 1;
#X connect 7 0 33 0;
#X connect 8 0 20 1;
#X connect 8 0 34 0;
#X connect 9 0 22 1;
#X connect 9 0 35 0;
#X connect 10 0 24 1;
#X connect 10 0 36 0;
#X connect 11 0 26 1;
#X connect 11 0 37 0;
#X connect 12 0 28 1;
#X connect 12 0 38 0;
#X connect 13 0 30 1;
#X connect 13 0 39 0;
#X connect 14 0 31 0;
#X connect 16 0 14 0;
#X connect 17 0 16 0;
#X connect 18 0 14 0;
#X connect 19 0 18 0;
#X connect 20 0 14 0;
#X connect 21 0 20 0;
#X connect 22 0 14 0;
#X connect 23 0 22 0;
#X connect 24 0 14 0;
#X connect 25 0 24 0;
#X connect 26 0 14 0;
#X connect 27 0 26 0;
#X connect 28 0 14 0;
#X connect 29 0 28 0;
#X connect 30 0 14 0;
#X connect 31 0 15 0;
#X connect 31 0 15 1;
#X connect 32 0 40 0;
#X connect 33 0 40 0;
#X connect 34 0 40 0;
#X connect 35 0 40 0;
#X connect 36 0 40 0;
#X connect 37 0 40 0;
#X connect 38 0 40 0;
#X connect 39 0 40 0;
#X connect 40 0 41 0;
#X connect 41 0 15 0;
#X connect 41 0 15 1;
#X connect 42 0 41 1;
#X connect 43 0 46 0;
#X connect 44 0 30 0;
#X connect 45 0 43 0;
#X connect 46 0 34 0;
#X connect 47 0 43 1;
#X connect 48 0 50 0;
#X connect 49 0 48 0;
#X connect 50 0 36 0;
#X connect 51 0 48 1;
#X connect 52 0 54 0;
#X connect 53 0 52 0;
#X connect 54 0 38 0;
#X connect 55 0 52 1;
#X connect 56 0 58 0;
#X connect 57 0 56 0;
#X connect 58 0 32 0;
#X connect 59 0 56 1;
#X connect 60 0 59 0;
#X connect 60 0 47 0;
#X connect 60 0 51 0;
#X connect 60 0 55 0;
