#N canvas 0 25 1280 720 10;
#X obj 66 29 tgl 15 0 empty empty empty 17 7 0 10 -262144 -1 -1 1 1
;
#X obj 66 79 counter 15;
#X obj 66 105 select 0 1 2 3 4 5 6 7 8 9 10 11 12 13 14 15;
#X obj 69 919 dac~;
#X floatatom 133 80 5 0 0 0 - - -;
#X obj 68 133 s p0;
#X obj 96 133 s p1;
#X obj 125 133 s p2;
#X obj 154 133 s p3;
#X obj 183 133 s p4;
#X obj 212 133 s p5;
#X obj 241 133 s p6;
#X obj 269 133 s p7;
#X obj 67 158 s p8;
#X obj 95 158 s p9;
#X obj 125 158 s p10;
#X obj 161 158 s p11;
#X obj 197 158 s p12;
#X obj 233 158 s p13;
#X obj 269 158 s p14;
#X obj 305 158 s p15;
#X obj 66 185 bng 15 250 50 0 empty empty empty 17 7 0 10 -262144 -1
-1;
#X obj 114 185 bng 15 250 50 0 empty empty empty 17 7 0 10 -262144
-1 -1;
#X obj 82 185 bng 15 250 50 0 empty empty empty 17 7 0 10 -262144 -1
-1;
#X obj 98 185 bng 15 250 50 0 empty empty empty 17 7 0 10 -262144 -1
-1;
#X obj 131 185 bng 15 250 50 0 empty empty empty 17 7 0 10 -262144
-1 -1;
#X obj 180 185 bng 15 250 50 0 empty empty empty 17 7 0 10 -262144
-1 -1;
#X obj 147 185 bng 15 250 50 0 empty empty empty 17 7 0 10 -262144
-1 -1;
#X obj 163 185 bng 15 250 50 0 empty empty empty 17 7 0 10 -262144
-1 -1;
#X obj 196 185 bng 15 250 50 0 empty empty empty 17 7 0 10 -262144
-1 -1;
#X obj 245 185 bng 15 250 50 0 empty empty empty 17 7 0 10 -262144
-1 -1;
#X obj 212 185 bng 15 250 50 0 empty empty empty 17 7 0 10 -262144
-1 -1;
#X obj 229 185 bng 15 250 50 0 empty empty empty 17 7 0 10 -262144
-1 -1;
#X obj 261 185 bng 15 250 50 0 empty empty empty 17 7 0 10 -262144
-1 -1;
#X obj 310 185 bng 15 250 50 0 empty empty empty 17 7 0 10 -262144
-1 -1;
#X obj 278 185 bng 15 250 50 0 empty empty empty 17 7 0 10 -262144
-1 -1;
#X obj 294 185 bng 15 250 50 0 empty empty empty 17 7 0 10 -262144
-1 -1;
#X obj 64 257 r p0;
#X floatatom 93 257 5 0 0 0 - - -;
#X obj 64 280 f;
#X floatatom 155 257 5 0 0 0 - - -;
#X obj 126 280 f;
#X obj 126 257 r p1;
#X floatatom 217 257 5 0 0 0 - - -;
#X obj 188 280 f;
#X obj 188 257 r p2;
#X floatatom 279 257 5 0 0 0 - - -;
#X obj 250 280 f;
#X obj 250 257 r p3;
#X floatatom 341 257 5 0 0 0 - - -;
#X obj 312 280 f;
#X floatatom 403 257 5 0 0 0 - - -;
#X obj 374 280 f;
#X floatatom 465 257 5 0 0 0 - - -;
#X obj 436 280 f;
#X floatatom 527 257 5 0 0 0 - - -;
#X obj 498 280 f;
#X obj 312 257 r p4;
#X obj 374 257 r p5;
#X obj 436 257 r p6;
#X obj 498 257 r p7;
#X floatatom 93 491 5 0 0 0 - - -;
#X obj 64 514 f;
#X floatatom 155 491 5 0 0 0 - - -;
#X obj 126 514 f;
#X floatatom 223 491 5 0 0 0 - - -;
#X obj 188 514 f;
#X floatatom 291 491 5 0 0 0 - - -;
#X obj 256 514 f;
#X floatatom 359 491 5 0 0 0 - - -;
#X obj 324 514 f;
#X floatatom 427 491 5 0 0 0 - - -;
#X obj 392 514 f;
#X floatatom 495 491 5 0 0 0 - - -;
#X obj 460 514 f;
#X floatatom 563 491 5 0 0 0 - - -;
#X obj 528 514 f;
#X obj 64 491 r p8;
#X obj 126 491 r p9;
#X obj 188 491 r p10;
#X obj 256 491 r p11;
#X obj 324 491 r p12;
#X obj 392 491 r p13;
#X obj 460 491 r p14;
#X obj 528 491 r p15;
#X obj 64 301 s d0;
#X obj 188 301 s d0;
#X obj 126 301 s d0;
#X obj 250 301 s d0;
#X obj 312 301 s d0;
#X obj 374 301 s d0;
#X obj 436 301 s d0;
#X obj 498 301 s d0;
#X obj 64 535 s d0;
#X obj 188 535 s d0;
#X obj 126 535 s d0;
#X obj 256 535 s d0;
#X obj 324 535 s d0;
#X obj 392 535 s d0;
#X obj 460 535 s d0;
#X obj 528 535 s d0;
#X obj 69 813 r d0;
#X floatatom 69 835 5 0 0 0 - - -;
#X obj 69 857 phasor~;
#X floatatom 366 52 5 0 0 0 - - -;
#X obj 366 78 s freq1;
#X floatatom 64 216 5 0 0 0 - - -;
#X obj 102 217 bng 15 250 50 0 empty empty empty 17 7 0 10 -262144
-1 -1;
#X obj 152 843 vline~;
#X msg 152 814 0 \, 1 20 \, 0 20 \$1;
#X obj 152 792 - 40;
#X floatatom 152 771 5 0 0 0 - - -;
#X floatatom 93 11 5 0 0 0 - - -;
#N canvas 102 186 600 518 penta 0;
#X floatatom -36 182 5 0 0 0 - - -;
#X obj 74 249 * 3;
#X obj 74 270 / 2;
#X floatatom 74 292 5 0 0 0 - - -;
#X obj 6 249 * 9;
#X obj 6 270 / 8;
#X floatatom 6 292 5 0 0 0 - - -;
#X obj -28 249 * 1;
#X floatatom -28 292 5 0 0 0 - - -;
#X obj 142 249 * 2;
#X floatatom 142 292 5 0 0 0 - - -;
#X obj 108 249 * 5;
#X obj 108 270 / 3;
#X floatatom 108 292 5 0 0 0 - - -;
#X obj 40 249 * 5;
#X obj 40 270 / 4;
#X floatatom 40 292 5 0 0 0 - - -;
#X obj -24 352 switch 6;
#X floatatom -37 126 5 0 0 0 - - -;
#X floatatom -24 374 5 0 0 0 - - -;
#X obj -37 149 trigger b f;
#X obj 87 65 random 6;
#X obj 87 89 + 1;
#X obj 87 45 bng 15 250 50 0 empty empty empty 17 7 0 10 -262144 -1
-1;
#X obj -37 21 inlet a;
#X obj -24 398 outlet foo;
#X obj 87 22 inlet b;
#X obj -88 149 r freq1;
#X obj 139 22 r random1;
#X connect 0 0 1 0;
#X connect 0 0 4 0;
#X connect 0 0 7 0;
#X connect 0 0 9 0;
#X connect 0 0 11 0;
#X connect 0 0 14 0;
#X connect 1 0 2 0;
#X connect 2 0 3 0;
#X connect 3 0 17 4;
#X connect 4 0 5 0;
#X connect 5 0 6 0;
#X connect 6 0 17 2;
#X connect 7 0 8 0;
#X connect 8 0 17 1;
#X connect 9 0 10 0;
#X connect 10 0 17 6;
#X connect 11 0 12 0;
#X connect 12 0 13 0;
#X connect 13 0 17 5;
#X connect 14 0 15 0;
#X connect 15 0 16 0;
#X connect 16 0 17 3;
#X connect 17 0 19 0;
#X connect 18 0 20 0;
#X connect 19 0 25 0;
#X connect 20 0 0 0;
#X connect 20 1 17 0;
#X connect 21 0 22 0;
#X connect 22 0 18 0;
#X connect 23 0 21 0;
#X connect 24 0 18 0;
#X connect 26 0 23 0;
#X connect 27 0 0 0;
#X connect 28 0 23 0;
#X restore 64 235 pd penta;
#X text 407 50 1) Establecer la frecuencia básica;
#X obj 366 103 bng 15 250 50 0 empty empty empty 17 7 0 10 -262144
-1 -1;
#X floatatom 126 216 5 0 0 0 - - -;
#X obj 164 217 bng 15 250 50 0 empty empty empty 17 7 0 10 -262144
-1 -1;
#N canvas 102 186 600 518 penta 0;
#X floatatom -36 182 5 0 0 0 - - -;
#X obj 74 249 * 3;
#X obj 74 270 / 2;
#X floatatom 74 292 5 0 0 0 - - -;
#X obj 6 249 * 9;
#X obj 6 270 / 8;
#X floatatom 6 292 5 0 0 0 - - -;
#X obj -28 249 * 1;
#X floatatom -28 292 5 0 0 0 - - -;
#X obj 142 249 * 2;
#X floatatom 142 292 5 0 0 0 - - -;
#X obj 108 249 * 5;
#X obj 108 270 / 3;
#X floatatom 108 292 5 0 0 0 - - -;
#X obj 40 249 * 5;
#X obj 40 270 / 4;
#X floatatom 40 292 5 0 0 0 - - -;
#X obj -24 352 switch 6;
#X floatatom -37 126 5 0 0 0 - - -;
#X floatatom -24 374 5 0 0 0 - - -;
#X obj -37 149 trigger b f;
#X obj 87 65 random 6;
#X obj 87 89 + 1;
#X obj 87 45 bng 15 250 50 0 empty empty empty 17 7 0 10 -262144 -1
-1;
#X obj -37 21 inlet a;
#X obj -24 398 outlet foo;
#X obj 87 22 inlet b;
#X obj -88 149 r freq1;
#X obj 139 22 r random1;
#X connect 0 0 1 0;
#X connect 0 0 4 0;
#X connect 0 0 7 0;
#X connect 0 0 9 0;
#X connect 0 0 11 0;
#X connect 0 0 14 0;
#X connect 1 0 2 0;
#X connect 2 0 3 0;
#X connect 3 0 17 4;
#X connect 4 0 5 0;
#X connect 5 0 6 0;
#X connect 6 0 17 2;
#X connect 7 0 8 0;
#X connect 8 0 17 1;
#X connect 9 0 10 0;
#X connect 10 0 17 6;
#X connect 11 0 12 0;
#X connect 12 0 13 0;
#X connect 13 0 17 5;
#X connect 14 0 15 0;
#X connect 15 0 16 0;
#X connect 16 0 17 3;
#X connect 17 0 19 0;
#X connect 18 0 20 0;
#X connect 19 0 25 0;
#X connect 20 0 0 0;
#X connect 20 1 17 0;
#X connect 21 0 22 0;
#X connect 22 0 18 0;
#X connect 23 0 21 0;
#X connect 24 0 18 0;
#X connect 26 0 23 0;
#X connect 27 0 0 0;
#X connect 28 0 23 0;
#X restore 126 235 pd penta;
#X floatatom 188 216 5 0 0 0 - - -;
#X obj 226 217 bng 15 250 50 0 empty empty empty 17 7 0 10 -262144
-1 -1;
#N canvas 102 186 600 518 penta 0;
#X floatatom -36 182 5 0 0 0 - - -;
#X obj 74 249 * 3;
#X obj 74 270 / 2;
#X floatatom 74 292 5 0 0 0 - - -;
#X obj 6 249 * 9;
#X obj 6 270 / 8;
#X floatatom 6 292 5 0 0 0 - - -;
#X obj -28 249 * 1;
#X floatatom -28 292 5 0 0 0 - - -;
#X obj 142 249 * 2;
#X floatatom 142 292 5 0 0 0 - - -;
#X obj 108 249 * 5;
#X obj 108 270 / 3;
#X floatatom 108 292 5 0 0 0 - - -;
#X obj 40 249 * 5;
#X obj 40 270 / 4;
#X floatatom 40 292 5 0 0 0 - - -;
#X obj -24 352 switch 6;
#X floatatom -37 126 5 0 0 0 - - -;
#X floatatom -24 374 5 0 0 0 - - -;
#X obj -37 149 trigger b f;
#X obj 87 65 random 6;
#X obj 87 89 + 1;
#X obj 87 45 bng 15 250 50 0 empty empty empty 17 7 0 10 -262144 -1
-1;
#X obj -37 21 inlet a;
#X obj -24 398 outlet foo;
#X obj 87 22 inlet b;
#X obj -88 149 r freq1;
#X obj 139 22 r random1;
#X connect 0 0 1 0;
#X connect 0 0 4 0;
#X connect 0 0 7 0;
#X connect 0 0 9 0;
#X connect 0 0 11 0;
#X connect 0 0 14 0;
#X connect 1 0 2 0;
#X connect 2 0 3 0;
#X connect 3 0 17 4;
#X connect 4 0 5 0;
#X connect 5 0 6 0;
#X connect 6 0 17 2;
#X connect 7 0 8 0;
#X connect 8 0 17 1;
#X connect 9 0 10 0;
#X connect 10 0 17 6;
#X connect 11 0 12 0;
#X connect 12 0 13 0;
#X connect 13 0 17 5;
#X connect 14 0 15 0;
#X connect 15 0 16 0;
#X connect 16 0 17 3;
#X connect 17 0 19 0;
#X connect 18 0 20 0;
#X connect 19 0 25 0;
#X connect 20 0 0 0;
#X connect 20 1 17 0;
#X connect 21 0 22 0;
#X connect 22 0 18 0;
#X connect 23 0 21 0;
#X connect 24 0 18 0;
#X connect 26 0 23 0;
#X connect 27 0 0 0;
#X connect 28 0 23 0;
#X restore 188 235 pd penta;
#X floatatom 250 216 5 0 0 0 - - -;
#X obj 288 217 bng 15 250 50 0 empty empty empty 17 7 0 10 -262144
-1 -1;
#N canvas 102 186 600 518 penta 0;
#X floatatom -36 182 5 0 0 0 - - -;
#X obj 74 249 * 3;
#X obj 74 270 / 2;
#X floatatom 74 292 5 0 0 0 - - -;
#X obj 6 249 * 9;
#X obj 6 270 / 8;
#X floatatom 6 292 5 0 0 0 - - -;
#X obj -28 249 * 1;
#X floatatom -28 292 5 0 0 0 - - -;
#X obj 142 249 * 2;
#X floatatom 142 292 5 0 0 0 - - -;
#X obj 108 249 * 5;
#X obj 108 270 / 3;
#X floatatom 108 292 5 0 0 0 - - -;
#X obj 40 249 * 5;
#X obj 40 270 / 4;
#X floatatom 40 292 5 0 0 0 - - -;
#X obj -24 352 switch 6;
#X floatatom -37 126 5 0 0 0 - - -;
#X floatatom -24 374 5 0 0 0 - - -;
#X obj -37 149 trigger b f;
#X obj 87 65 random 6;
#X obj 87 89 + 1;
#X obj 87 45 bng 15 250 50 0 empty empty empty 17 7 0 10 -262144 -1
-1;
#X obj -37 21 inlet a;
#X obj -24 398 outlet foo;
#X obj 87 22 inlet b;
#X obj -88 149 r freq1;
#X obj 139 22 r random1;
#X connect 0 0 1 0;
#X connect 0 0 4 0;
#X connect 0 0 7 0;
#X connect 0 0 9 0;
#X connect 0 0 11 0;
#X connect 0 0 14 0;
#X connect 1 0 2 0;
#X connect 2 0 3 0;
#X connect 3 0 17 4;
#X connect 4 0 5 0;
#X connect 5 0 6 0;
#X connect 6 0 17 2;
#X connect 7 0 8 0;
#X connect 8 0 17 1;
#X connect 9 0 10 0;
#X connect 10 0 17 6;
#X connect 11 0 12 0;
#X connect 12 0 13 0;
#X connect 13 0 17 5;
#X connect 14 0 15 0;
#X connect 15 0 16 0;
#X connect 16 0 17 3;
#X connect 17 0 19 0;
#X connect 18 0 20 0;
#X connect 19 0 25 0;
#X connect 20 0 0 0;
#X connect 20 1 17 0;
#X connect 21 0 22 0;
#X connect 22 0 18 0;
#X connect 23 0 21 0;
#X connect 24 0 18 0;
#X connect 26 0 23 0;
#X connect 27 0 0 0;
#X connect 28 0 23 0;
#X restore 250 235 pd penta;
#X floatatom 312 216 5 0 0 0 - - -;
#X obj 350 217 bng 15 250 50 0 empty empty empty 17 7 0 10 -262144
-1 -1;
#N canvas 102 186 600 518 penta 0;
#X floatatom -36 182 5 0 0 0 - - -;
#X obj 74 249 * 3;
#X obj 74 270 / 2;
#X floatatom 74 292 5 0 0 0 - - -;
#X obj 6 249 * 9;
#X obj 6 270 / 8;
#X floatatom 6 292 5 0 0 0 - - -;
#X obj -28 249 * 1;
#X floatatom -28 292 5 0 0 0 - - -;
#X obj 142 249 * 2;
#X floatatom 142 292 5 0 0 0 - - -;
#X obj 108 249 * 5;
#X obj 108 270 / 3;
#X floatatom 108 292 5 0 0 0 - - -;
#X obj 40 249 * 5;
#X obj 40 270 / 4;
#X floatatom 40 292 5 0 0 0 - - -;
#X obj -24 352 switch 6;
#X floatatom -37 126 5 0 0 0 - - -;
#X floatatom -24 374 5 0 0 0 - - -;
#X obj -37 149 trigger b f;
#X obj 87 65 random 6;
#X obj 87 89 + 1;
#X obj 87 45 bng 15 250 50 0 empty empty empty 17 7 0 10 -262144 -1
-1;
#X obj -37 21 inlet a;
#X obj -24 398 outlet foo;
#X obj 87 22 inlet b;
#X obj -88 149 r freq1;
#X obj 139 22 r random1;
#X connect 0 0 1 0;
#X connect 0 0 4 0;
#X connect 0 0 7 0;
#X connect 0 0 9 0;
#X connect 0 0 11 0;
#X connect 0 0 14 0;
#X connect 1 0 2 0;
#X connect 2 0 3 0;
#X connect 3 0 17 4;
#X connect 4 0 5 0;
#X connect 5 0 6 0;
#X connect 6 0 17 2;
#X connect 7 0 8 0;
#X connect 8 0 17 1;
#X connect 9 0 10 0;
#X connect 10 0 17 6;
#X connect 11 0 12 0;
#X connect 12 0 13 0;
#X connect 13 0 17 5;
#X connect 14 0 15 0;
#X connect 15 0 16 0;
#X connect 16 0 17 3;
#X connect 17 0 19 0;
#X connect 18 0 20 0;
#X connect 19 0 25 0;
#X connect 20 0 0 0;
#X connect 20 1 17 0;
#X connect 21 0 22 0;
#X connect 22 0 18 0;
#X connect 23 0 21 0;
#X connect 24 0 18 0;
#X connect 26 0 23 0;
#X connect 27 0 0 0;
#X connect 28 0 23 0;
#X restore 312 235 pd penta;
#X floatatom 374 216 5 0 0 0 - - -;
#X obj 412 217 bng 15 250 50 0 empty empty empty 17 7 0 10 -262144
-1 -1;
#N canvas 102 186 600 518 penta 0;
#X floatatom -36 182 5 0 0 0 - - -;
#X obj 74 249 * 3;
#X obj 74 270 / 2;
#X floatatom 74 292 5 0 0 0 - - -;
#X obj 6 249 * 9;
#X obj 6 270 / 8;
#X floatatom 6 292 5 0 0 0 - - -;
#X obj -28 249 * 1;
#X floatatom -28 292 5 0 0 0 - - -;
#X obj 142 249 * 2;
#X floatatom 142 292 5 0 0 0 - - -;
#X obj 108 249 * 5;
#X obj 108 270 / 3;
#X floatatom 108 292 5 0 0 0 - - -;
#X obj 40 249 * 5;
#X obj 40 270 / 4;
#X floatatom 40 292 5 0 0 0 - - -;
#X obj -24 352 switch 6;
#X floatatom -37 126 5 0 0 0 - - -;
#X floatatom -24 374 5 0 0 0 - - -;
#X obj -37 149 trigger b f;
#X obj 87 65 random 6;
#X obj 87 89 + 1;
#X obj 87 45 bng 15 250 50 0 empty empty empty 17 7 0 10 -262144 -1
-1;
#X obj -37 21 inlet a;
#X obj -24 398 outlet foo;
#X obj 87 22 inlet b;
#X obj -88 149 r freq1;
#X obj 139 22 r random1;
#X connect 0 0 1 0;
#X connect 0 0 4 0;
#X connect 0 0 7 0;
#X connect 0 0 9 0;
#X connect 0 0 11 0;
#X connect 0 0 14 0;
#X connect 1 0 2 0;
#X connect 2 0 3 0;
#X connect 3 0 17 4;
#X connect 4 0 5 0;
#X connect 5 0 6 0;
#X connect 6 0 17 2;
#X connect 7 0 8 0;
#X connect 8 0 17 1;
#X connect 9 0 10 0;
#X connect 10 0 17 6;
#X connect 11 0 12 0;
#X connect 12 0 13 0;
#X connect 13 0 17 5;
#X connect 14 0 15 0;
#X connect 15 0 16 0;
#X connect 16 0 17 3;
#X connect 17 0 19 0;
#X connect 18 0 20 0;
#X connect 19 0 25 0;
#X connect 20 0 0 0;
#X connect 20 1 17 0;
#X connect 21 0 22 0;
#X connect 22 0 18 0;
#X connect 23 0 21 0;
#X connect 24 0 18 0;
#X connect 26 0 23 0;
#X connect 27 0 0 0;
#X connect 28 0 23 0;
#X restore 374 235 pd penta;
#X floatatom 436 216 5 0 0 0 - - -;
#X obj 474 217 bng 15 250 50 0 empty empty empty 17 7 0 10 -262144
-1 -1;
#N canvas 102 186 600 518 penta 0;
#X floatatom -36 182 5 0 0 0 - - -;
#X obj 74 249 * 3;
#X obj 74 270 / 2;
#X floatatom 74 292 5 0 0 0 - - -;
#X obj 6 249 * 9;
#X obj 6 270 / 8;
#X floatatom 6 292 5 0 0 0 - - -;
#X obj -28 249 * 1;
#X floatatom -28 292 5 0 0 0 - - -;
#X obj 142 249 * 2;
#X floatatom 142 292 5 0 0 0 - - -;
#X obj 108 249 * 5;
#X obj 108 270 / 3;
#X floatatom 108 292 5 0 0 0 - - -;
#X obj 40 249 * 5;
#X obj 40 270 / 4;
#X floatatom 40 292 5 0 0 0 - - -;
#X obj -24 352 switch 6;
#X floatatom -37 126 5 0 0 0 - - -;
#X floatatom -24 374 5 0 0 0 - - -;
#X obj -37 149 trigger b f;
#X obj 87 65 random 6;
#X obj 87 89 + 1;
#X obj 87 45 bng 15 250 50 0 empty empty empty 17 7 0 10 -262144 -1
-1;
#X obj -37 21 inlet a;
#X obj -24 398 outlet foo;
#X obj 87 22 inlet b;
#X obj -88 149 r freq1;
#X obj 139 22 r random1;
#X connect 0 0 1 0;
#X connect 0 0 4 0;
#X connect 0 0 7 0;
#X connect 0 0 9 0;
#X connect 0 0 11 0;
#X connect 0 0 14 0;
#X connect 1 0 2 0;
#X connect 2 0 3 0;
#X connect 3 0 17 4;
#X connect 4 0 5 0;
#X connect 5 0 6 0;
#X connect 6 0 17 2;
#X connect 7 0 8 0;
#X connect 8 0 17 1;
#X connect 9 0 10 0;
#X connect 10 0 17 6;
#X connect 11 0 12 0;
#X connect 12 0 13 0;
#X connect 13 0 17 5;
#X connect 14 0 15 0;
#X connect 15 0 16 0;
#X connect 16 0 17 3;
#X connect 17 0 19 0;
#X connect 18 0 20 0;
#X connect 19 0 25 0;
#X connect 20 0 0 0;
#X connect 20 1 17 0;
#X connect 21 0 22 0;
#X connect 22 0 18 0;
#X connect 23 0 21 0;
#X connect 24 0 18 0;
#X connect 26 0 23 0;
#X connect 27 0 0 0;
#X connect 28 0 23 0;
#X restore 436 235 pd penta;
#X floatatom 498 216 5 0 0 0 - - -;
#X obj 536 217 bng 15 250 50 0 empty empty empty 17 7 0 10 -262144
-1 -1;
#N canvas 102 186 600 518 penta 0;
#X floatatom -36 182 5 0 0 0 - - -;
#X obj 74 249 * 3;
#X obj 74 270 / 2;
#X floatatom 74 292 5 0 0 0 - - -;
#X obj 6 249 * 9;
#X obj 6 270 / 8;
#X floatatom 6 292 5 0 0 0 - - -;
#X obj -28 249 * 1;
#X floatatom -28 292 5 0 0 0 - - -;
#X obj 142 249 * 2;
#X floatatom 142 292 5 0 0 0 - - -;
#X obj 108 249 * 5;
#X obj 108 270 / 3;
#X floatatom 108 292 5 0 0 0 - - -;
#X obj 40 249 * 5;
#X obj 40 270 / 4;
#X floatatom 40 292 5 0 0 0 - - -;
#X obj -24 352 switch 6;
#X floatatom -37 126 5 0 0 0 - - -;
#X floatatom -24 374 5 0 0 0 - - -;
#X obj -37 149 trigger b f;
#X obj 87 65 random 6;
#X obj 87 89 + 1;
#X obj 87 45 bng 15 250 50 0 empty empty empty 17 7 0 10 -262144 -1
-1;
#X obj -37 21 inlet a;
#X obj -24 398 outlet foo;
#X obj 87 22 inlet b;
#X obj -88 149 r freq1;
#X obj 139 22 r random1;
#X connect 0 0 1 0;
#X connect 0 0 4 0;
#X connect 0 0 7 0;
#X connect 0 0 9 0;
#X connect 0 0 11 0;
#X connect 0 0 14 0;
#X connect 1 0 2 0;
#X connect 2 0 3 0;
#X connect 3 0 17 4;
#X connect 4 0 5 0;
#X connect 5 0 6 0;
#X connect 6 0 17 2;
#X connect 7 0 8 0;
#X connect 8 0 17 1;
#X connect 9 0 10 0;
#X connect 10 0 17 6;
#X connect 11 0 12 0;
#X connect 12 0 13 0;
#X connect 13 0 17 5;
#X connect 14 0 15 0;
#X connect 15 0 16 0;
#X connect 16 0 17 3;
#X connect 17 0 19 0;
#X connect 18 0 20 0;
#X connect 19 0 25 0;
#X connect 20 0 0 0;
#X connect 20 1 17 0;
#X connect 21 0 22 0;
#X connect 22 0 18 0;
#X connect 23 0 21 0;
#X connect 24 0 18 0;
#X connect 26 0 23 0;
#X connect 27 0 0 0;
#X connect 28 0 23 0;
#X restore 498 235 pd penta;
#X floatatom 64 449 5 0 0 0 - - -;
#X obj 102 450 bng 15 250 50 0 empty empty empty 17 7 0 10 -262144
-1 -1;
#N canvas 102 186 600 518 penta 0;
#X floatatom -36 182 5 0 0 0 - - -;
#X obj 74 249 * 3;
#X obj 74 270 / 2;
#X floatatom 74 292 5 0 0 0 - - -;
#X obj 6 249 * 9;
#X obj 6 270 / 8;
#X floatatom 6 292 5 0 0 0 - - -;
#X obj -28 249 * 1;
#X floatatom -28 292 5 0 0 0 - - -;
#X obj 142 249 * 2;
#X floatatom 142 292 5 0 0 0 - - -;
#X obj 108 249 * 5;
#X obj 108 270 / 3;
#X floatatom 108 292 5 0 0 0 - - -;
#X obj 40 249 * 5;
#X obj 40 270 / 4;
#X floatatom 40 292 5 0 0 0 - - -;
#X obj -24 352 switch 6;
#X floatatom -37 126 5 0 0 0 - - -;
#X floatatom -24 374 5 0 0 0 - - -;
#X obj -37 149 trigger b f;
#X obj 87 65 random 6;
#X obj 87 89 + 1;
#X obj 87 45 bng 15 250 50 0 empty empty empty 17 7 0 10 -262144 -1
-1;
#X obj -37 21 inlet a;
#X obj -24 398 outlet foo;
#X obj 87 22 inlet b;
#X obj -88 149 r freq1;
#X obj 139 22 r random1;
#X connect 0 0 1 0;
#X connect 0 0 4 0;
#X connect 0 0 7 0;
#X connect 0 0 9 0;
#X connect 0 0 11 0;
#X connect 0 0 14 0;
#X connect 1 0 2 0;
#X connect 2 0 3 0;
#X connect 3 0 17 4;
#X connect 4 0 5 0;
#X connect 5 0 6 0;
#X connect 6 0 17 2;
#X connect 7 0 8 0;
#X connect 8 0 17 1;
#X connect 9 0 10 0;
#X connect 10 0 17 6;
#X connect 11 0 12 0;
#X connect 12 0 13 0;
#X connect 13 0 17 5;
#X connect 14 0 15 0;
#X connect 15 0 16 0;
#X connect 16 0 17 3;
#X connect 17 0 19 0;
#X connect 18 0 20 0;
#X connect 19 0 25 0;
#X connect 20 0 0 0;
#X connect 20 1 17 0;
#X connect 21 0 22 0;
#X connect 22 0 18 0;
#X connect 23 0 21 0;
#X connect 24 0 18 0;
#X connect 26 0 23 0;
#X connect 27 0 0 0;
#X connect 28 0 23 0;
#X restore 64 468 pd penta;
#X floatatom 126 449 5 0 0 0 - - -;
#X obj 164 450 bng 15 250 50 0 empty empty empty 17 7 0 10 -262144
-1 -1;
#N canvas 102 186 600 518 penta 0;
#X floatatom -36 182 5 0 0 0 - - -;
#X obj 74 249 * 3;
#X obj 74 270 / 2;
#X floatatom 74 292 5 0 0 0 - - -;
#X obj 6 249 * 9;
#X obj 6 270 / 8;
#X floatatom 6 292 5 0 0 0 - - -;
#X obj -28 249 * 1;
#X floatatom -28 292 5 0 0 0 - - -;
#X obj 142 249 * 2;
#X floatatom 142 292 5 0 0 0 - - -;
#X obj 108 249 * 5;
#X obj 108 270 / 3;
#X floatatom 108 292 5 0 0 0 - - -;
#X obj 40 249 * 5;
#X obj 40 270 / 4;
#X floatatom 40 292 5 0 0 0 - - -;
#X obj -24 352 switch 6;
#X floatatom -37 126 5 0 0 0 - - -;
#X floatatom -24 374 5 0 0 0 - - -;
#X obj -37 149 trigger b f;
#X obj 87 65 random 6;
#X obj 87 89 + 1;
#X obj 87 45 bng 15 250 50 0 empty empty empty 17 7 0 10 -262144 -1
-1;
#X obj -37 21 inlet a;
#X obj -24 398 outlet foo;
#X obj 87 22 inlet b;
#X obj -88 149 r freq1;
#X obj 139 22 r random1;
#X connect 0 0 1 0;
#X connect 0 0 4 0;
#X connect 0 0 7 0;
#X connect 0 0 9 0;
#X connect 0 0 11 0;
#X connect 0 0 14 0;
#X connect 1 0 2 0;
#X connect 2 0 3 0;
#X connect 3 0 17 4;
#X connect 4 0 5 0;
#X connect 5 0 6 0;
#X connect 6 0 17 2;
#X connect 7 0 8 0;
#X connect 8 0 17 1;
#X connect 9 0 10 0;
#X connect 10 0 17 6;
#X connect 11 0 12 0;
#X connect 12 0 13 0;
#X connect 13 0 17 5;
#X connect 14 0 15 0;
#X connect 15 0 16 0;
#X connect 16 0 17 3;
#X connect 17 0 19 0;
#X connect 18 0 20 0;
#X connect 19 0 25 0;
#X connect 20 0 0 0;
#X connect 20 1 17 0;
#X connect 21 0 22 0;
#X connect 22 0 18 0;
#X connect 23 0 21 0;
#X connect 24 0 18 0;
#X connect 26 0 23 0;
#X connect 27 0 0 0;
#X connect 28 0 23 0;
#X restore 126 468 pd penta;
#X floatatom 188 449 5 0 0 0 - - -;
#X obj 226 450 bng 15 250 50 0 empty empty empty 17 7 0 10 -262144
-1 -1;
#N canvas 102 186 600 518 penta 0;
#X floatatom -36 182 5 0 0 0 - - -;
#X obj 74 249 * 3;
#X obj 74 270 / 2;
#X floatatom 74 292 5 0 0 0 - - -;
#X obj 6 249 * 9;
#X obj 6 270 / 8;
#X floatatom 6 292 5 0 0 0 - - -;
#X obj -28 249 * 1;
#X floatatom -28 292 5 0 0 0 - - -;
#X obj 142 249 * 2;
#X floatatom 142 292 5 0 0 0 - - -;
#X obj 108 249 * 5;
#X obj 108 270 / 3;
#X floatatom 108 292 5 0 0 0 - - -;
#X obj 40 249 * 5;
#X obj 40 270 / 4;
#X floatatom 40 292 5 0 0 0 - - -;
#X obj -24 352 switch 6;
#X floatatom -37 126 5 0 0 0 - - -;
#X floatatom -24 374 5 0 0 0 - - -;
#X obj -37 149 trigger b f;
#X obj 87 65 random 6;
#X obj 87 89 + 1;
#X obj 87 45 bng 15 250 50 0 empty empty empty 17 7 0 10 -262144 -1
-1;
#X obj -37 21 inlet a;
#X obj -24 398 outlet foo;
#X obj 87 22 inlet b;
#X obj -88 149 r freq1;
#X obj 139 22 r random1;
#X connect 0 0 1 0;
#X connect 0 0 4 0;
#X connect 0 0 7 0;
#X connect 0 0 9 0;
#X connect 0 0 11 0;
#X connect 0 0 14 0;
#X connect 1 0 2 0;
#X connect 2 0 3 0;
#X connect 3 0 17 4;
#X connect 4 0 5 0;
#X connect 5 0 6 0;
#X connect 6 0 17 2;
#X connect 7 0 8 0;
#X connect 8 0 17 1;
#X connect 9 0 10 0;
#X connect 10 0 17 6;
#X connect 11 0 12 0;
#X connect 12 0 13 0;
#X connect 13 0 17 5;
#X connect 14 0 15 0;
#X connect 15 0 16 0;
#X connect 16 0 17 3;
#X connect 17 0 19 0;
#X connect 18 0 20 0;
#X connect 19 0 25 0;
#X connect 20 0 0 0;
#X connect 20 1 17 0;
#X connect 21 0 22 0;
#X connect 22 0 18 0;
#X connect 23 0 21 0;
#X connect 24 0 18 0;
#X connect 26 0 23 0;
#X connect 27 0 0 0;
#X connect 28 0 23 0;
#X restore 188 468 pd penta;
#X floatatom 256 449 5 0 0 0 - - -;
#X obj 294 450 bng 15 250 50 0 empty empty empty 17 7 0 10 -262144
-1 -1;
#N canvas 102 186 600 518 penta 0;
#X floatatom -36 182 5 0 0 0 - - -;
#X obj 74 249 * 3;
#X obj 74 270 / 2;
#X floatatom 74 292 5 0 0 0 - - -;
#X obj 6 249 * 9;
#X obj 6 270 / 8;
#X floatatom 6 292 5 0 0 0 - - -;
#X obj -28 249 * 1;
#X floatatom -28 292 5 0 0 0 - - -;
#X obj 142 249 * 2;
#X floatatom 142 292 5 0 0 0 - - -;
#X obj 108 249 * 5;
#X obj 108 270 / 3;
#X floatatom 108 292 5 0 0 0 - - -;
#X obj 40 249 * 5;
#X obj 40 270 / 4;
#X floatatom 40 292 5 0 0 0 - - -;
#X obj -24 352 switch 6;
#X floatatom -37 126 5 0 0 0 - - -;
#X floatatom -24 374 5 0 0 0 - - -;
#X obj -37 149 trigger b f;
#X obj 87 65 random 6;
#X obj 87 89 + 1;
#X obj 87 45 bng 15 250 50 0 empty empty empty 17 7 0 10 -262144 -1
-1;
#X obj -37 21 inlet a;
#X obj -24 398 outlet foo;
#X obj 87 22 inlet b;
#X obj -88 149 r freq1;
#X obj 139 22 r random1;
#X connect 0 0 1 0;
#X connect 0 0 4 0;
#X connect 0 0 7 0;
#X connect 0 0 9 0;
#X connect 0 0 11 0;
#X connect 0 0 14 0;
#X connect 1 0 2 0;
#X connect 2 0 3 0;
#X connect 3 0 17 4;
#X connect 4 0 5 0;
#X connect 5 0 6 0;
#X connect 6 0 17 2;
#X connect 7 0 8 0;
#X connect 8 0 17 1;
#X connect 9 0 10 0;
#X connect 10 0 17 6;
#X connect 11 0 12 0;
#X connect 12 0 13 0;
#X connect 13 0 17 5;
#X connect 14 0 15 0;
#X connect 15 0 16 0;
#X connect 16 0 17 3;
#X connect 17 0 19 0;
#X connect 18 0 20 0;
#X connect 19 0 25 0;
#X connect 20 0 0 0;
#X connect 20 1 17 0;
#X connect 21 0 22 0;
#X connect 22 0 18 0;
#X connect 23 0 21 0;
#X connect 24 0 18 0;
#X connect 26 0 23 0;
#X connect 27 0 0 0;
#X connect 28 0 23 0;
#X restore 256 468 pd penta;
#X floatatom 324 449 5 0 0 0 - - -;
#X obj 362 450 bng 15 250 50 0 empty empty empty 17 7 0 10 -262144
-1 -1;
#N canvas 102 186 600 518 penta 0;
#X floatatom -36 182 5 0 0 0 - - -;
#X obj 74 249 * 3;
#X obj 74 270 / 2;
#X floatatom 74 292 5 0 0 0 - - -;
#X obj 6 249 * 9;
#X obj 6 270 / 8;
#X floatatom 6 292 5 0 0 0 - - -;
#X obj -28 249 * 1;
#X floatatom -28 292 5 0 0 0 - - -;
#X obj 142 249 * 2;
#X floatatom 142 292 5 0 0 0 - - -;
#X obj 108 249 * 5;
#X obj 108 270 / 3;
#X floatatom 108 292 5 0 0 0 - - -;
#X obj 40 249 * 5;
#X obj 40 270 / 4;
#X floatatom 40 292 5 0 0 0 - - -;
#X obj -24 352 switch 6;
#X floatatom -37 126 5 0 0 0 - - -;
#X floatatom -24 374 5 0 0 0 - - -;
#X obj -37 149 trigger b f;
#X obj 87 65 random 6;
#X obj 87 89 + 1;
#X obj 87 45 bng 15 250 50 0 empty empty empty 17 7 0 10 -262144 -1
-1;
#X obj -37 21 inlet a;
#X obj -24 398 outlet foo;
#X obj 87 22 inlet b;
#X obj -88 149 r freq1;
#X obj 139 22 r random1;
#X connect 0 0 1 0;
#X connect 0 0 4 0;
#X connect 0 0 7 0;
#X connect 0 0 9 0;
#X connect 0 0 11 0;
#X connect 0 0 14 0;
#X connect 1 0 2 0;
#X connect 2 0 3 0;
#X connect 3 0 17 4;
#X connect 4 0 5 0;
#X connect 5 0 6 0;
#X connect 6 0 17 2;
#X connect 7 0 8 0;
#X connect 8 0 17 1;
#X connect 9 0 10 0;
#X connect 10 0 17 6;
#X connect 11 0 12 0;
#X connect 12 0 13 0;
#X connect 13 0 17 5;
#X connect 14 0 15 0;
#X connect 15 0 16 0;
#X connect 16 0 17 3;
#X connect 17 0 19 0;
#X connect 18 0 20 0;
#X connect 19 0 25 0;
#X connect 20 0 0 0;
#X connect 20 1 17 0;
#X connect 21 0 22 0;
#X connect 22 0 18 0;
#X connect 23 0 21 0;
#X connect 24 0 18 0;
#X connect 26 0 23 0;
#X connect 27 0 0 0;
#X connect 28 0 23 0;
#X restore 324 468 pd penta;
#X floatatom 392 449 5 0 0 0 - - -;
#X obj 430 450 bng 15 250 50 0 empty empty empty 17 7 0 10 -262144
-1 -1;
#N canvas 102 186 600 518 penta 0;
#X floatatom -36 182 5 0 0 0 - - -;
#X obj 74 249 * 3;
#X obj 74 270 / 2;
#X floatatom 74 292 5 0 0 0 - - -;
#X obj 6 249 * 9;
#X obj 6 270 / 8;
#X floatatom 6 292 5 0 0 0 - - -;
#X obj -28 249 * 1;
#X floatatom -28 292 5 0 0 0 - - -;
#X obj 142 249 * 2;
#X floatatom 142 292 5 0 0 0 - - -;
#X obj 108 249 * 5;
#X obj 108 270 / 3;
#X floatatom 108 292 5 0 0 0 - - -;
#X obj 40 249 * 5;
#X obj 40 270 / 4;
#X floatatom 40 292 5 0 0 0 - - -;
#X obj -24 352 switch 6;
#X floatatom -37 126 5 0 0 0 - - -;
#X floatatom -24 374 5 0 0 0 - - -;
#X obj -37 149 trigger b f;
#X obj 87 65 random 6;
#X obj 87 89 + 1;
#X obj 87 45 bng 15 250 50 0 empty empty empty 17 7 0 10 -262144 -1
-1;
#X obj -37 21 inlet a;
#X obj -24 398 outlet foo;
#X obj 87 22 inlet b;
#X obj -88 149 r freq1;
#X obj 139 22 r random1;
#X connect 0 0 1 0;
#X connect 0 0 4 0;
#X connect 0 0 7 0;
#X connect 0 0 9 0;
#X connect 0 0 11 0;
#X connect 0 0 14 0;
#X connect 1 0 2 0;
#X connect 2 0 3 0;
#X connect 3 0 17 4;
#X connect 4 0 5 0;
#X connect 5 0 6 0;
#X connect 6 0 17 2;
#X connect 7 0 8 0;
#X connect 8 0 17 1;
#X connect 9 0 10 0;
#X connect 10 0 17 6;
#X connect 11 0 12 0;
#X connect 12 0 13 0;
#X connect 13 0 17 5;
#X connect 14 0 15 0;
#X connect 15 0 16 0;
#X connect 16 0 17 3;
#X connect 17 0 19 0;
#X connect 18 0 20 0;
#X connect 19 0 25 0;
#X connect 20 0 0 0;
#X connect 20 1 17 0;
#X connect 21 0 22 0;
#X connect 22 0 18 0;
#X connect 23 0 21 0;
#X connect 24 0 18 0;
#X connect 26 0 23 0;
#X connect 27 0 0 0;
#X connect 28 0 23 0;
#X restore 392 468 pd penta;
#X floatatom 460 449 5 0 0 0 - - -;
#X obj 498 450 bng 15 250 50 0 empty empty empty 17 7 0 10 -262144
-1 -1;
#N canvas 102 186 600 518 penta 0;
#X floatatom -36 182 5 0 0 0 - - -;
#X obj 74 249 * 3;
#X obj 74 270 / 2;
#X floatatom 74 292 5 0 0 0 - - -;
#X obj 6 249 * 9;
#X obj 6 270 / 8;
#X floatatom 6 292 5 0 0 0 - - -;
#X obj -28 249 * 1;
#X floatatom -28 292 5 0 0 0 - - -;
#X obj 142 249 * 2;
#X floatatom 142 292 5 0 0 0 - - -;
#X obj 108 249 * 5;
#X obj 108 270 / 3;
#X floatatom 108 292 5 0 0 0 - - -;
#X obj 40 249 * 5;
#X obj 40 270 / 4;
#X floatatom 40 292 5 0 0 0 - - -;
#X obj -24 352 switch 6;
#X floatatom -37 126 5 0 0 0 - - -;
#X floatatom -24 374 5 0 0 0 - - -;
#X obj -37 149 trigger b f;
#X obj 87 65 random 6;
#X obj 87 89 + 1;
#X obj 87 45 bng 15 250 50 0 empty empty empty 17 7 0 10 -262144 -1
-1;
#X obj -37 21 inlet a;
#X obj -24 398 outlet foo;
#X obj 87 22 inlet b;
#X obj -88 149 r freq1;
#X obj 139 22 r random1;
#X connect 0 0 1 0;
#X connect 0 0 4 0;
#X connect 0 0 7 0;
#X connect 0 0 9 0;
#X connect 0 0 11 0;
#X connect 0 0 14 0;
#X connect 1 0 2 0;
#X connect 2 0 3 0;
#X connect 3 0 17 4;
#X connect 4 0 5 0;
#X connect 5 0 6 0;
#X connect 6 0 17 2;
#X connect 7 0 8 0;
#X connect 8 0 17 1;
#X connect 9 0 10 0;
#X connect 10 0 17 6;
#X connect 11 0 12 0;
#X connect 12 0 13 0;
#X connect 13 0 17 5;
#X connect 14 0 15 0;
#X connect 15 0 16 0;
#X connect 16 0 17 3;
#X connect 17 0 19 0;
#X connect 18 0 20 0;
#X connect 19 0 25 0;
#X connect 20 0 0 0;
#X connect 20 1 17 0;
#X connect 21 0 22 0;
#X connect 22 0 18 0;
#X connect 23 0 21 0;
#X connect 24 0 18 0;
#X connect 26 0 23 0;
#X connect 27 0 0 0;
#X connect 28 0 23 0;
#X restore 460 468 pd penta;
#X floatatom 528 449 5 0 0 0 - - -;
#X obj 566 450 bng 15 250 50 0 empty empty empty 17 7 0 10 -262144
-1 -1;
#N canvas 102 186 600 518 penta 0;
#X floatatom -36 182 5 0 0 0 - - -;
#X obj 74 249 * 3;
#X obj 74 270 / 2;
#X floatatom 74 292 5 0 0 0 - - -;
#X obj 6 249 * 9;
#X obj 6 270 / 8;
#X floatatom 6 292 5 0 0 0 - - -;
#X obj -28 249 * 1;
#X floatatom -28 292 5 0 0 0 - - -;
#X obj 142 249 * 2;
#X floatatom 142 292 5 0 0 0 - - -;
#X obj 108 249 * 5;
#X obj 108 270 / 3;
#X floatatom 108 292 5 0 0 0 - - -;
#X obj 40 249 * 5;
#X obj 40 270 / 4;
#X floatatom 40 292 5 0 0 0 - - -;
#X obj -24 352 switch 6;
#X floatatom -37 126 5 0 0 0 - - -;
#X floatatom -24 374 5 0 0 0 - - -;
#X obj -37 149 trigger b f;
#X obj 87 65 random 6;
#X obj 87 89 + 1;
#X obj 87 45 bng 15 250 50 0 empty empty empty 17 7 0 10 -262144 -1
-1;
#X obj -37 21 inlet a;
#X obj -24 398 outlet foo;
#X obj 87 22 inlet b;
#X obj -88 149 r freq1;
#X obj 139 22 r random1;
#X connect 0 0 1 0;
#X connect 0 0 4 0;
#X connect 0 0 7 0;
#X connect 0 0 9 0;
#X connect 0 0 11 0;
#X connect 0 0 14 0;
#X connect 1 0 2 0;
#X connect 2 0 3 0;
#X connect 3 0 17 4;
#X connect 4 0 5 0;
#X connect 5 0 6 0;
#X connect 6 0 17 2;
#X connect 7 0 8 0;
#X connect 8 0 17 1;
#X connect 9 0 10 0;
#X connect 10 0 17 6;
#X connect 11 0 12 0;
#X connect 12 0 13 0;
#X connect 13 0 17 5;
#X connect 14 0 15 0;
#X connect 15 0 16 0;
#X connect 16 0 17 3;
#X connect 17 0 19 0;
#X connect 18 0 20 0;
#X connect 19 0 25 0;
#X connect 20 0 0 0;
#X connect 20 1 17 0;
#X connect 21 0 22 0;
#X connect 22 0 18 0;
#X connect 23 0 21 0;
#X connect 24 0 18 0;
#X connect 26 0 23 0;
#X connect 27 0 0 0;
#X connect 28 0 23 0;
#X restore 528 468 pd penta;
#X obj 69 890 *~;
#X obj 108 54 s metro;
#X obj 167 729 r metro;
#X obj 136 708 select 0 1 2 3 4 5 6;
#X msg 259 814 0 20;
#X msg 294 814 1 20;
#X floatatom 437 769 5 0 0 0 - - -;
#X obj 452 723 r metro;
#X obj 437 791 / 2;
#X msg 437 814 0 \, 1 \$1 \, 0 \$1 \$1;
#X obj 437 747 f;
#X obj 152 750 f;
#X floatatom 551 768 5 0 0 0 - - -;
#X obj 566 722 r metro;
#X obj 551 790 / 2;
#X obj 551 746 f;
#X msg 551 813 1 \, 0 0 \$1;
#X text 407 102 2) enviar mensaje para frecuencias y envolventes aleatorios
;
#X obj 64 404 f;
#X floatatom 79 385 5 0 0 0 - - -;
#X obj 64 426 s e0;
#X obj 136 686 r e0;
#X obj 64 363 random 7;
#X obj 64 345 bng 15 250 50 0 empty empty empty 17 7 0 10 -262144 -1
-1;
#X obj 366 126 s random1;
#X obj 64 325 r random1;
#X obj 126 404 f;
#X floatatom 141 385 5 0 0 0 - - -;
#X obj 126 426 s e0;
#X obj 126 363 random 7;
#X obj 126 345 bng 15 250 50 0 empty empty empty 17 7 0 10 -262144
-1 -1;
#X obj 126 325 r random1;
#X obj 188 404 f;
#X floatatom 203 385 5 0 0 0 - - -;
#X obj 188 426 s e0;
#X obj 188 363 random 7;
#X obj 188 345 bng 15 250 50 0 empty empty empty 17 7 0 10 -262144
-1 -1;
#X obj 188 325 r random1;
#X msg 329 814 0 \, 1 20 \, 0 20 40;
#X obj 250 404 f;
#X floatatom 265 385 5 0 0 0 - - -;
#X obj 250 426 s e0;
#X obj 250 363 random 7;
#X obj 250 345 bng 15 250 50 0 empty empty empty 17 7 0 10 -262144
-1 -1;
#X obj 250 325 r random1;
#X obj 313 404 f;
#X floatatom 328 385 5 0 0 0 - - -;
#X obj 313 426 s e0;
#X obj 313 363 random 7;
#X obj 313 345 bng 15 250 50 0 empty empty empty 17 7 0 10 -262144
-1 -1;
#X obj 313 325 r random1;
#X obj 375 404 f;
#X floatatom 390 385 5 0 0 0 - - -;
#X obj 375 426 s e0;
#X obj 375 363 random 7;
#X obj 375 345 bng 15 250 50 0 empty empty empty 17 7 0 10 -262144
-1 -1;
#X obj 375 325 r random1;
#X obj 437 404 f;
#X floatatom 452 385 5 0 0 0 - - -;
#X obj 437 426 s e0;
#X obj 437 363 random 7;
#X obj 437 345 bng 15 250 50 0 empty empty empty 17 7 0 10 -262144
-1 -1;
#X obj 437 325 r random1;
#X obj 499 404 f;
#X floatatom 514 385 5 0 0 0 - - -;
#X obj 499 426 s e0;
#X obj 499 363 random 7;
#X obj 499 345 bng 15 250 50 0 empty empty empty 17 7 0 10 -262144
-1 -1;
#X obj 499 325 r random1;
#X obj 64 636 f;
#X floatatom 79 617 5 0 0 0 - - -;
#X obj 64 658 s e0;
#X obj 64 595 random 7;
#X obj 64 577 bng 15 250 50 0 empty empty empty 17 7 0 10 -262144 -1
-1;
#X obj 64 557 r random1;
#X obj 126 636 f;
#X floatatom 141 617 5 0 0 0 - - -;
#X obj 126 658 s e0;
#X obj 126 595 random 7;
#X obj 126 577 bng 15 250 50 0 empty empty empty 17 7 0 10 -262144
-1 -1;
#X obj 126 557 r random1;
#X obj 188 636 f;
#X floatatom 203 617 5 0 0 0 - - -;
#X obj 188 658 s e0;
#X obj 188 595 random 7;
#X obj 188 577 bng 15 250 50 0 empty empty empty 17 7 0 10 -262144
-1 -1;
#X obj 188 557 r random1;
#X obj 256 636 f;
#X floatatom 271 617 5 0 0 0 - - -;
#X obj 256 658 s e0;
#X obj 256 595 random 7;
#X obj 256 577 bng 15 250 50 0 empty empty empty 17 7 0 10 -262144
-1 -1;
#X obj 256 557 r random1;
#X obj 324 636 f;
#X floatatom 339 617 5 0 0 0 - - -;
#X obj 324 658 s e0;
#X obj 324 595 random 7;
#X obj 324 577 bng 15 250 50 0 empty empty empty 17 7 0 10 -262144
-1 -1;
#X obj 324 557 r random1;
#X obj 392 636 f;
#X floatatom 407 617 5 0 0 0 - - -;
#X obj 392 658 s e0;
#X obj 392 595 random 7;
#X obj 392 577 bng 15 250 50 0 empty empty empty 17 7 0 10 -262144
-1 -1;
#X obj 392 557 r random1;
#X obj 460 636 f;
#X floatatom 475 617 5 0 0 0 - - -;
#X obj 460 658 s e0;
#X obj 460 595 random 7;
#X obj 460 577 bng 15 250 50 0 empty empty empty 17 7 0 10 -262144
-1 -1;
#X obj 460 557 r random1;
#X obj 528 636 f;
#X floatatom 543 617 5 0 0 0 - - -;
#X obj 528 658 s e0;
#X obj 528 595 random 7;
#X obj 528 577 bng 15 250 50 0 empty empty empty 17 7 0 10 -262144
-1 -1;
#X obj 528 557 r random1;
#X obj 704 699 dac~;
#X obj 704 669 *~ 50;
#X obj 722 206 r p0;
#X obj 701 228 gate;
#X obj 701 206 tgl 15 0 empty empty empty 17 7 0 10 -262144 -1 -1 1
1;
#X obj 701 184 random 2;
#X obj 701 162 r random1;
#X obj 763 228 gate;
#X obj 763 206 tgl 15 0 empty empty empty 17 7 0 10 -262144 -1 -1 1
1;
#X obj 763 184 random 2;
#X obj 763 162 r random1;
#X obj 784 206 r p1;
#X obj 824 228 gate;
#X obj 824 206 tgl 15 0 empty empty empty 17 7 0 10 -262144 -1 -1 0
1;
#X obj 824 184 random 2;
#X obj 824 162 r random1;
#X obj 886 228 gate;
#X obj 886 206 tgl 15 0 empty empty empty 17 7 0 10 -262144 -1 -1 1
1;
#X obj 886 184 random 2;
#X obj 886 162 r random1;
#X obj 845 206 r p2;
#X obj 907 206 r p3;
#X obj 701 251 s c1;
#X obj 704 643 click~;
#X obj 704 620 r c1;
#X obj 702 342 gate;
#X obj 702 320 tgl 15 0 empty empty empty 17 7 0 10 -262144 -1 -1 1
1;
#X obj 702 298 random 2;
#X obj 702 276 r random1;
#X obj 764 342 gate;
#X obj 764 320 tgl 15 0 empty empty empty 17 7 0 10 -262144 -1 -1 0
1;
#X obj 764 298 random 2;
#X obj 764 276 r random1;
#X obj 825 342 gate;
#X obj 825 320 tgl 15 0 empty empty empty 17 7 0 10 -262144 -1 -1 0
1;
#X obj 825 298 random 2;
#X obj 825 276 r random1;
#X obj 887 342 gate;
#X obj 887 320 tgl 15 0 empty empty empty 17 7 0 10 -262144 -1 -1 0
1;
#X obj 887 298 random 2;
#X obj 887 276 r random1;
#X obj 702 366 s c1;
#X obj 723 320 r p4;
#X obj 785 320 r p5;
#X obj 846 320 r p6;
#X obj 908 320 r p7;
#X obj 703 457 gate;
#X obj 703 435 tgl 15 0 empty empty empty 17 7 0 10 -262144 -1 -1 1
1;
#X obj 703 413 random 2;
#X obj 703 391 r random1;
#X obj 765 457 gate;
#X obj 765 435 tgl 15 0 empty empty empty 17 7 0 10 -262144 -1 -1 0
1;
#X obj 765 413 random 2;
#X obj 765 391 r random1;
#X obj 826 457 gate;
#X obj 826 435 tgl 15 0 empty empty empty 17 7 0 10 -262144 -1 -1 1
1;
#X obj 826 413 random 2;
#X obj 826 391 r random1;
#X obj 888 457 gate;
#X obj 888 435 tgl 15 0 empty empty empty 17 7 0 10 -262144 -1 -1 1
1;
#X obj 888 413 random 2;
#X obj 888 391 r random1;
#X obj 703 480 s c1;
#X obj 704 571 gate;
#X obj 704 549 tgl 15 0 empty empty empty 17 7 0 10 -262144 -1 -1 1
1;
#X obj 704 527 random 2;
#X obj 704 505 r random1;
#X obj 766 571 gate;
#X obj 766 549 tgl 15 0 empty empty empty 17 7 0 10 -262144 -1 -1 1
1;
#X obj 766 527 random 2;
#X obj 766 505 r random1;
#X obj 827 571 gate;
#X obj 827 549 tgl 15 0 empty empty empty 17 7 0 10 -262144 -1 -1 1
1;
#X obj 827 527 random 2;
#X obj 827 505 r random1;
#X obj 889 571 gate;
#X obj 889 549 tgl 15 0 empty empty empty 17 7 0 10 -262144 -1 -1 0
1;
#X obj 889 527 random 2;
#X obj 889 505 r random1;
#X obj 704 595 s c1;
#X obj 724 435 r p8;
#X obj 786 435 r p9;
#X obj 847 435 r p10;
#X obj 909 435 r p11;
#X obj 725 549 r p12;
#X obj 787 549 r p13;
#X obj 848 549 r p14;
#X obj 910 549 r p15;
#X obj 973 718 dac~;
#X obj 991 206 r p0;
#X obj 970 228 gate;
#X obj 970 206 tgl 15 0 empty empty empty 17 7 0 10 -262144 -1 -1 1
1;
#X obj 970 184 random 2;
#X obj 970 162 r random1;
#X obj 1032 228 gate;
#X obj 1032 206 tgl 15 0 empty empty empty 17 7 0 10 -262144 -1 -1
0 1;
#X obj 1032 184 random 2;
#X obj 1032 162 r random1;
#X obj 1053 206 r p1;
#X obj 1093 228 gate;
#X obj 1093 206 tgl 15 0 empty empty empty 17 7 0 10 -262144 -1 -1
1 1;
#X obj 1093 184 random 2;
#X obj 1093 162 r random1;
#X obj 1155 228 gate;
#X obj 1155 206 tgl 15 0 empty empty empty 17 7 0 10 -262144 -1 -1
0 1;
#X obj 1155 184 random 2;
#X obj 1155 162 r random1;
#X obj 1114 206 r p2;
#X obj 1176 206 r p3;
#X obj 971 342 gate;
#X obj 971 320 tgl 15 0 empty empty empty 17 7 0 10 -262144 -1 -1 1
1;
#X obj 971 298 random 2;
#X obj 971 276 r random1;
#X obj 1033 342 gate;
#X obj 1033 320 tgl 15 0 empty empty empty 17 7 0 10 -262144 -1 -1
1 1;
#X obj 1033 298 random 2;
#X obj 1033 276 r random1;
#X obj 1094 342 gate;
#X obj 1094 320 tgl 15 0 empty empty empty 17 7 0 10 -262144 -1 -1
0 1;
#X obj 1094 298 random 2;
#X obj 1094 276 r random1;
#X obj 1156 342 gate;
#X obj 1156 320 tgl 15 0 empty empty empty 17 7 0 10 -262144 -1 -1
0 1;
#X obj 1156 298 random 2;
#X obj 1156 276 r random1;
#X obj 992 320 r p4;
#X obj 1054 320 r p5;
#X obj 1115 320 r p6;
#X obj 1177 320 r p7;
#X obj 972 457 gate;
#X obj 972 435 tgl 15 0 empty empty empty 17 7 0 10 -262144 -1 -1 1
1;
#X obj 972 413 random 2;
#X obj 972 391 r random1;
#X obj 1034 457 gate;
#X obj 1034 435 tgl 15 0 empty empty empty 17 7 0 10 -262144 -1 -1
0 1;
#X obj 1034 413 random 2;
#X obj 1034 391 r random1;
#X obj 1095 457 gate;
#X obj 1095 435 tgl 15 0 empty empty empty 17 7 0 10 -262144 -1 -1
0 1;
#X obj 1095 413 random 2;
#X obj 1095 391 r random1;
#X obj 1157 457 gate;
#X obj 1157 435 tgl 15 0 empty empty empty 17 7 0 10 -262144 -1 -1
1 1;
#X obj 1157 413 random 2;
#X obj 1157 391 r random1;
#X obj 973 571 gate;
#X obj 973 549 tgl 15 0 empty empty empty 17 7 0 10 -262144 -1 -1 0
1;
#X obj 973 527 random 2;
#X obj 973 505 r random1;
#X obj 1035 571 gate;
#X obj 1035 549 tgl 15 0 empty empty empty 17 7 0 10 -262144 -1 -1
1 1;
#X obj 1035 527 random 2;
#X obj 1035 505 r random1;
#X obj 1096 571 gate;
#X obj 1096 549 tgl 15 0 empty empty empty 17 7 0 10 -262144 -1 -1
1 1;
#X obj 1096 527 random 2;
#X obj 1096 505 r random1;
#X obj 1158 571 gate;
#X obj 1158 549 tgl 15 0 empty empty empty 17 7 0 10 -262144 -1 -1
0 1;
#X obj 1158 527 random 2;
#X obj 1158 505 r random1;
#X obj 993 435 r p8;
#X obj 1055 435 r p9;
#X obj 1116 435 r p10;
#X obj 1178 435 r p11;
#X obj 994 549 r p12;
#X obj 1056 549 r p13;
#X obj 1117 549 r p14;
#X obj 1179 549 r p15;
#X obj 970 251 s c2;
#X obj 971 366 s c2;
#X obj 972 480 s c2;
#X obj 973 595 s c2;
#X obj 1027 619 r c2;
#X obj 973 688 *~;
#X obj 1022 672 vline~;
#X obj 973 643 noise~;
#X msg 1026 644 0 \, 1 20 \, 0 20 30;
#X obj 66 53 metro;
#X text 134 11 3) establecer velocidad del metronomo;
#X text 134 28 4) iniciar metronomo;
#X text 164 54 5) ¿audio?;
#X obj 1260 914 dac~;
#X obj 1255 252 r p0;
#X floatatom 1284 252 5 0 0 0 - - -;
#X obj 1255 275 f;
#X floatatom 1346 252 5 0 0 0 - - -;
#X obj 1317 275 f;
#X obj 1317 252 r p1;
#X floatatom 1408 252 5 0 0 0 - - -;
#X obj 1379 275 f;
#X obj 1379 252 r p2;
#X floatatom 1470 252 5 0 0 0 - - -;
#X obj 1441 275 f;
#X obj 1441 252 r p3;
#X floatatom 1532 252 5 0 0 0 - - -;
#X obj 1503 275 f;
#X floatatom 1594 252 5 0 0 0 - - -;
#X obj 1565 275 f;
#X floatatom 1656 252 5 0 0 0 - - -;
#X obj 1627 275 f;
#X floatatom 1718 252 5 0 0 0 - - -;
#X obj 1689 275 f;
#X obj 1503 252 r p4;
#X obj 1565 252 r p5;
#X obj 1627 252 r p6;
#X obj 1689 252 r p7;
#X floatatom 1284 486 5 0 0 0 - - -;
#X obj 1255 509 f;
#X floatatom 1346 486 5 0 0 0 - - -;
#X obj 1317 509 f;
#X floatatom 1414 486 5 0 0 0 - - -;
#X obj 1379 509 f;
#X floatatom 1482 486 5 0 0 0 - - -;
#X obj 1447 509 f;
#X floatatom 1550 486 5 0 0 0 - - -;
#X obj 1515 509 f;
#X floatatom 1618 486 5 0 0 0 - - -;
#X obj 1583 509 f;
#X floatatom 1686 486 5 0 0 0 - - -;
#X obj 1651 509 f;
#X floatatom 1754 486 5 0 0 0 - - -;
#X obj 1719 509 f;
#X obj 1255 486 r p8;
#X obj 1317 486 r p9;
#X obj 1379 486 r p10;
#X obj 1447 486 r p11;
#X obj 1515 486 r p12;
#X obj 1583 486 r p13;
#X obj 1651 486 r p14;
#X obj 1719 486 r p15;
#X floatatom 1260 806 5 0 0 0 - - -;
#X floatatom 1255 211 5 0 0 0 - - -;
#X obj 1293 212 bng 15 250 50 0 empty empty empty 17 7 0 10 -262144
-1 -1;
#X obj 1343 838 vline~;
#X msg 1343 809 0 \, 1 20 \, 0 20 \$1;
#X obj 1343 787 - 40;
#X floatatom 1343 766 5 0 0 0 - - -;
#N canvas 102 186 600 518 penta 0;
#X floatatom -36 182 5 0 0 0 - - -;
#X obj 74 249 * 3;
#X obj 74 270 / 2;
#X floatatom 74 292 5 0 0 0 - - -;
#X obj 6 249 * 9;
#X obj 6 270 / 8;
#X floatatom 6 292 5 0 0 0 - - -;
#X obj -28 249 * 1;
#X floatatom -28 292 5 0 0 0 - - -;
#X obj 142 249 * 2;
#X floatatom 142 292 5 0 0 0 - - -;
#X obj 108 249 * 5;
#X obj 108 270 / 3;
#X floatatom 108 292 5 0 0 0 - - -;
#X obj 40 249 * 5;
#X obj 40 270 / 4;
#X floatatom 40 292 5 0 0 0 - - -;
#X obj -24 352 switch 6;
#X floatatom -37 126 5 0 0 0 - - -;
#X floatatom -24 374 5 0 0 0 - - -;
#X obj -37 149 trigger b f;
#X obj 87 65 random 6;
#X obj 87 89 + 1;
#X obj 87 45 bng 15 250 50 0 empty empty empty 17 7 0 10 -262144 -1
-1;
#X obj -37 21 inlet a;
#X obj -24 398 outlet foo;
#X obj 87 22 inlet b;
#X obj -88 149 r freq1;
#X obj 139 22 r random1;
#X connect 0 0 1 0;
#X connect 0 0 4 0;
#X connect 0 0 7 0;
#X connect 0 0 9 0;
#X connect 0 0 11 0;
#X connect 0 0 14 0;
#X connect 1 0 2 0;
#X connect 2 0 3 0;
#X connect 3 0 17 4;
#X connect 4 0 5 0;
#X connect 5 0 6 0;
#X connect 6 0 17 2;
#X connect 7 0 8 0;
#X connect 8 0 17 1;
#X connect 9 0 10 0;
#X connect 10 0 17 6;
#X connect 11 0 12 0;
#X connect 12 0 13 0;
#X connect 13 0 17 5;
#X connect 14 0 15 0;
#X connect 15 0 16 0;
#X connect 16 0 17 3;
#X connect 17 0 19 0;
#X connect 18 0 20 0;
#X connect 19 0 25 0;
#X connect 20 0 0 0;
#X connect 20 1 17 0;
#X connect 21 0 22 0;
#X connect 22 0 18 0;
#X connect 23 0 21 0;
#X connect 24 0 18 0;
#X connect 26 0 23 0;
#X connect 27 0 0 0;
#X connect 28 0 23 0;
#X restore 1255 230 pd penta;
#X floatatom 1317 211 5 0 0 0 - - -;
#X obj 1355 212 bng 15 250 50 0 empty empty empty 17 7 0 10 -262144
-1 -1;
#N canvas 102 186 600 518 penta 0;
#X floatatom -36 182 5 0 0 0 - - -;
#X obj 74 249 * 3;
#X obj 74 270 / 2;
#X floatatom 74 292 5 0 0 0 - - -;
#X obj 6 249 * 9;
#X obj 6 270 / 8;
#X floatatom 6 292 5 0 0 0 - - -;
#X obj -28 249 * 1;
#X floatatom -28 292 5 0 0 0 - - -;
#X obj 142 249 * 2;
#X floatatom 142 292 5 0 0 0 - - -;
#X obj 108 249 * 5;
#X obj 108 270 / 3;
#X floatatom 108 292 5 0 0 0 - - -;
#X obj 40 249 * 5;
#X obj 40 270 / 4;
#X floatatom 40 292 5 0 0 0 - - -;
#X obj -24 352 switch 6;
#X floatatom -37 126 5 0 0 0 - - -;
#X floatatom -24 374 5 0 0 0 - - -;
#X obj -37 149 trigger b f;
#X obj 87 65 random 6;
#X obj 87 89 + 1;
#X obj 87 45 bng 15 250 50 0 empty empty empty 17 7 0 10 -262144 -1
-1;
#X obj -37 21 inlet a;
#X obj -24 398 outlet foo;
#X obj 87 22 inlet b;
#X obj -88 149 r freq1;
#X obj 139 22 r random1;
#X connect 0 0 1 0;
#X connect 0 0 4 0;
#X connect 0 0 7 0;
#X connect 0 0 9 0;
#X connect 0 0 11 0;
#X connect 0 0 14 0;
#X connect 1 0 2 0;
#X connect 2 0 3 0;
#X connect 3 0 17 4;
#X connect 4 0 5 0;
#X connect 5 0 6 0;
#X connect 6 0 17 2;
#X connect 7 0 8 0;
#X connect 8 0 17 1;
#X connect 9 0 10 0;
#X connect 10 0 17 6;
#X connect 11 0 12 0;
#X connect 12 0 13 0;
#X connect 13 0 17 5;
#X connect 14 0 15 0;
#X connect 15 0 16 0;
#X connect 16 0 17 3;
#X connect 17 0 19 0;
#X connect 18 0 20 0;
#X connect 19 0 25 0;
#X connect 20 0 0 0;
#X connect 20 1 17 0;
#X connect 21 0 22 0;
#X connect 22 0 18 0;
#X connect 23 0 21 0;
#X connect 24 0 18 0;
#X connect 26 0 23 0;
#X connect 27 0 0 0;
#X connect 28 0 23 0;
#X restore 1317 230 pd penta;
#X floatatom 1379 211 5 0 0 0 - - -;
#X obj 1417 212 bng 15 250 50 0 empty empty empty 17 7 0 10 -262144
-1 -1;
#N canvas 102 186 600 518 penta 0;
#X floatatom -36 182 5 0 0 0 - - -;
#X obj 74 249 * 3;
#X obj 74 270 / 2;
#X floatatom 74 292 5 0 0 0 - - -;
#X obj 6 249 * 9;
#X obj 6 270 / 8;
#X floatatom 6 292 5 0 0 0 - - -;
#X obj -28 249 * 1;
#X floatatom -28 292 5 0 0 0 - - -;
#X obj 142 249 * 2;
#X floatatom 142 292 5 0 0 0 - - -;
#X obj 108 249 * 5;
#X obj 108 270 / 3;
#X floatatom 108 292 5 0 0 0 - - -;
#X obj 40 249 * 5;
#X obj 40 270 / 4;
#X floatatom 40 292 5 0 0 0 - - -;
#X obj -24 352 switch 6;
#X floatatom -37 126 5 0 0 0 - - -;
#X floatatom -24 374 5 0 0 0 - - -;
#X obj -37 149 trigger b f;
#X obj 87 65 random 6;
#X obj 87 89 + 1;
#X obj 87 45 bng 15 250 50 0 empty empty empty 17 7 0 10 -262144 -1
-1;
#X obj -37 21 inlet a;
#X obj -24 398 outlet foo;
#X obj 87 22 inlet b;
#X obj -88 149 r freq1;
#X obj 139 22 r random1;
#X connect 0 0 1 0;
#X connect 0 0 4 0;
#X connect 0 0 7 0;
#X connect 0 0 9 0;
#X connect 0 0 11 0;
#X connect 0 0 14 0;
#X connect 1 0 2 0;
#X connect 2 0 3 0;
#X connect 3 0 17 4;
#X connect 4 0 5 0;
#X connect 5 0 6 0;
#X connect 6 0 17 2;
#X connect 7 0 8 0;
#X connect 8 0 17 1;
#X connect 9 0 10 0;
#X connect 10 0 17 6;
#X connect 11 0 12 0;
#X connect 12 0 13 0;
#X connect 13 0 17 5;
#X connect 14 0 15 0;
#X connect 15 0 16 0;
#X connect 16 0 17 3;
#X connect 17 0 19 0;
#X connect 18 0 20 0;
#X connect 19 0 25 0;
#X connect 20 0 0 0;
#X connect 20 1 17 0;
#X connect 21 0 22 0;
#X connect 22 0 18 0;
#X connect 23 0 21 0;
#X connect 24 0 18 0;
#X connect 26 0 23 0;
#X connect 27 0 0 0;
#X connect 28 0 23 0;
#X restore 1379 230 pd penta;
#X floatatom 1441 211 5 0 0 0 - - -;
#X obj 1479 212 bng 15 250 50 0 empty empty empty 17 7 0 10 -262144
-1 -1;
#N canvas 102 186 600 518 penta 0;
#X floatatom -36 182 5 0 0 0 - - -;
#X obj 74 249 * 3;
#X obj 74 270 / 2;
#X floatatom 74 292 5 0 0 0 - - -;
#X obj 6 249 * 9;
#X obj 6 270 / 8;
#X floatatom 6 292 5 0 0 0 - - -;
#X obj -28 249 * 1;
#X floatatom -28 292 5 0 0 0 - - -;
#X obj 142 249 * 2;
#X floatatom 142 292 5 0 0 0 - - -;
#X obj 108 249 * 5;
#X obj 108 270 / 3;
#X floatatom 108 292 5 0 0 0 - - -;
#X obj 40 249 * 5;
#X obj 40 270 / 4;
#X floatatom 40 292 5 0 0 0 - - -;
#X obj -24 352 switch 6;
#X floatatom -37 126 5 0 0 0 - - -;
#X floatatom -24 374 5 0 0 0 - - -;
#X obj -37 149 trigger b f;
#X obj 87 65 random 6;
#X obj 87 89 + 1;
#X obj 87 45 bng 15 250 50 0 empty empty empty 17 7 0 10 -262144 -1
-1;
#X obj -37 21 inlet a;
#X obj -24 398 outlet foo;
#X obj 87 22 inlet b;
#X obj -88 149 r freq1;
#X obj 139 22 r random1;
#X connect 0 0 1 0;
#X connect 0 0 4 0;
#X connect 0 0 7 0;
#X connect 0 0 9 0;
#X connect 0 0 11 0;
#X connect 0 0 14 0;
#X connect 1 0 2 0;
#X connect 2 0 3 0;
#X connect 3 0 17 4;
#X connect 4 0 5 0;
#X connect 5 0 6 0;
#X connect 6 0 17 2;
#X connect 7 0 8 0;
#X connect 8 0 17 1;
#X connect 9 0 10 0;
#X connect 10 0 17 6;
#X connect 11 0 12 0;
#X connect 12 0 13 0;
#X connect 13 0 17 5;
#X connect 14 0 15 0;
#X connect 15 0 16 0;
#X connect 16 0 17 3;
#X connect 17 0 19 0;
#X connect 18 0 20 0;
#X connect 19 0 25 0;
#X connect 20 0 0 0;
#X connect 20 1 17 0;
#X connect 21 0 22 0;
#X connect 22 0 18 0;
#X connect 23 0 21 0;
#X connect 24 0 18 0;
#X connect 26 0 23 0;
#X connect 27 0 0 0;
#X connect 28 0 23 0;
#X restore 1441 230 pd penta;
#X floatatom 1503 211 5 0 0 0 - - -;
#X obj 1541 212 bng 15 250 50 0 empty empty empty 17 7 0 10 -262144
-1 -1;
#N canvas 102 186 600 518 penta 0;
#X floatatom -36 182 5 0 0 0 - - -;
#X obj 74 249 * 3;
#X obj 74 270 / 2;
#X floatatom 74 292 5 0 0 0 - - -;
#X obj 6 249 * 9;
#X obj 6 270 / 8;
#X floatatom 6 292 5 0 0 0 - - -;
#X obj -28 249 * 1;
#X floatatom -28 292 5 0 0 0 - - -;
#X obj 142 249 * 2;
#X floatatom 142 292 5 0 0 0 - - -;
#X obj 108 249 * 5;
#X obj 108 270 / 3;
#X floatatom 108 292 5 0 0 0 - - -;
#X obj 40 249 * 5;
#X obj 40 270 / 4;
#X floatatom 40 292 5 0 0 0 - - -;
#X obj -24 352 switch 6;
#X floatatom -37 126 5 0 0 0 - - -;
#X floatatom -24 374 5 0 0 0 - - -;
#X obj -37 149 trigger b f;
#X obj 87 65 random 6;
#X obj 87 89 + 1;
#X obj 87 45 bng 15 250 50 0 empty empty empty 17 7 0 10 -262144 -1
-1;
#X obj -37 21 inlet a;
#X obj -24 398 outlet foo;
#X obj 87 22 inlet b;
#X obj -88 149 r freq1;
#X obj 139 22 r random1;
#X connect 0 0 1 0;
#X connect 0 0 4 0;
#X connect 0 0 7 0;
#X connect 0 0 9 0;
#X connect 0 0 11 0;
#X connect 0 0 14 0;
#X connect 1 0 2 0;
#X connect 2 0 3 0;
#X connect 3 0 17 4;
#X connect 4 0 5 0;
#X connect 5 0 6 0;
#X connect 6 0 17 2;
#X connect 7 0 8 0;
#X connect 8 0 17 1;
#X connect 9 0 10 0;
#X connect 10 0 17 6;
#X connect 11 0 12 0;
#X connect 12 0 13 0;
#X connect 13 0 17 5;
#X connect 14 0 15 0;
#X connect 15 0 16 0;
#X connect 16 0 17 3;
#X connect 17 0 19 0;
#X connect 18 0 20 0;
#X connect 19 0 25 0;
#X connect 20 0 0 0;
#X connect 20 1 17 0;
#X connect 21 0 22 0;
#X connect 22 0 18 0;
#X connect 23 0 21 0;
#X connect 24 0 18 0;
#X connect 26 0 23 0;
#X connect 27 0 0 0;
#X connect 28 0 23 0;
#X restore 1503 230 pd penta;
#X floatatom 1565 211 5 0 0 0 - - -;
#X obj 1603 212 bng 15 250 50 0 empty empty empty 17 7 0 10 -262144
-1 -1;
#N canvas 102 186 600 518 penta 0;
#X floatatom -36 182 5 0 0 0 - - -;
#X obj 74 249 * 3;
#X obj 74 270 / 2;
#X floatatom 74 292 5 0 0 0 - - -;
#X obj 6 249 * 9;
#X obj 6 270 / 8;
#X floatatom 6 292 5 0 0 0 - - -;
#X obj -28 249 * 1;
#X floatatom -28 292 5 0 0 0 - - -;
#X obj 142 249 * 2;
#X floatatom 142 292 5 0 0 0 - - -;
#X obj 108 249 * 5;
#X obj 108 270 / 3;
#X floatatom 108 292 5 0 0 0 - - -;
#X obj 40 249 * 5;
#X obj 40 270 / 4;
#X floatatom 40 292 5 0 0 0 - - -;
#X obj -24 352 switch 6;
#X floatatom -37 126 5 0 0 0 - - -;
#X floatatom -24 374 5 0 0 0 - - -;
#X obj -37 149 trigger b f;
#X obj 87 65 random 6;
#X obj 87 89 + 1;
#X obj 87 45 bng 15 250 50 0 empty empty empty 17 7 0 10 -262144 -1
-1;
#X obj -37 21 inlet a;
#X obj -24 398 outlet foo;
#X obj 87 22 inlet b;
#X obj -88 149 r freq1;
#X obj 139 22 r random1;
#X connect 0 0 1 0;
#X connect 0 0 4 0;
#X connect 0 0 7 0;
#X connect 0 0 9 0;
#X connect 0 0 11 0;
#X connect 0 0 14 0;
#X connect 1 0 2 0;
#X connect 2 0 3 0;
#X connect 3 0 17 4;
#X connect 4 0 5 0;
#X connect 5 0 6 0;
#X connect 6 0 17 2;
#X connect 7 0 8 0;
#X connect 8 0 17 1;
#X connect 9 0 10 0;
#X connect 10 0 17 6;
#X connect 11 0 12 0;
#X connect 12 0 13 0;
#X connect 13 0 17 5;
#X connect 14 0 15 0;
#X connect 15 0 16 0;
#X connect 16 0 17 3;
#X connect 17 0 19 0;
#X connect 18 0 20 0;
#X connect 19 0 25 0;
#X connect 20 0 0 0;
#X connect 20 1 17 0;
#X connect 21 0 22 0;
#X connect 22 0 18 0;
#X connect 23 0 21 0;
#X connect 24 0 18 0;
#X connect 26 0 23 0;
#X connect 27 0 0 0;
#X connect 28 0 23 0;
#X restore 1565 230 pd penta;
#X floatatom 1627 211 5 0 0 0 - - -;
#X obj 1665 212 bng 15 250 50 0 empty empty empty 17 7 0 10 -262144
-1 -1;
#N canvas 102 186 600 518 penta 0;
#X floatatom -36 182 5 0 0 0 - - -;
#X obj 74 249 * 3;
#X obj 74 270 / 2;
#X floatatom 74 292 5 0 0 0 - - -;
#X obj 6 249 * 9;
#X obj 6 270 / 8;
#X floatatom 6 292 5 0 0 0 - - -;
#X obj -28 249 * 1;
#X floatatom -28 292 5 0 0 0 - - -;
#X obj 142 249 * 2;
#X floatatom 142 292 5 0 0 0 - - -;
#X obj 108 249 * 5;
#X obj 108 270 / 3;
#X floatatom 108 292 5 0 0 0 - - -;
#X obj 40 249 * 5;
#X obj 40 270 / 4;
#X floatatom 40 292 5 0 0 0 - - -;
#X obj -24 352 switch 6;
#X floatatom -37 126 5 0 0 0 - - -;
#X floatatom -24 374 5 0 0 0 - - -;
#X obj -37 149 trigger b f;
#X obj 87 65 random 6;
#X obj 87 89 + 1;
#X obj 87 45 bng 15 250 50 0 empty empty empty 17 7 0 10 -262144 -1
-1;
#X obj -37 21 inlet a;
#X obj -24 398 outlet foo;
#X obj 87 22 inlet b;
#X obj -88 149 r freq1;
#X obj 139 22 r random1;
#X connect 0 0 1 0;
#X connect 0 0 4 0;
#X connect 0 0 7 0;
#X connect 0 0 9 0;
#X connect 0 0 11 0;
#X connect 0 0 14 0;
#X connect 1 0 2 0;
#X connect 2 0 3 0;
#X connect 3 0 17 4;
#X connect 4 0 5 0;
#X connect 5 0 6 0;
#X connect 6 0 17 2;
#X connect 7 0 8 0;
#X connect 8 0 17 1;
#X connect 9 0 10 0;
#X connect 10 0 17 6;
#X connect 11 0 12 0;
#X connect 12 0 13 0;
#X connect 13 0 17 5;
#X connect 14 0 15 0;
#X connect 15 0 16 0;
#X connect 16 0 17 3;
#X connect 17 0 19 0;
#X connect 18 0 20 0;
#X connect 19 0 25 0;
#X connect 20 0 0 0;
#X connect 20 1 17 0;
#X connect 21 0 22 0;
#X connect 22 0 18 0;
#X connect 23 0 21 0;
#X connect 24 0 18 0;
#X connect 26 0 23 0;
#X connect 27 0 0 0;
#X connect 28 0 23 0;
#X restore 1627 230 pd penta;
#X floatatom 1689 211 5 0 0 0 - - -;
#X obj 1727 212 bng 15 250 50 0 empty empty empty 17 7 0 10 -262144
-1 -1;
#N canvas 102 186 600 518 penta 0;
#X floatatom -36 182 5 0 0 0 - - -;
#X obj 74 249 * 3;
#X obj 74 270 / 2;
#X floatatom 74 292 5 0 0 0 - - -;
#X obj 6 249 * 9;
#X obj 6 270 / 8;
#X floatatom 6 292 5 0 0 0 - - -;
#X obj -28 249 * 1;
#X floatatom -28 292 5 0 0 0 - - -;
#X obj 142 249 * 2;
#X floatatom 142 292 5 0 0 0 - - -;
#X obj 108 249 * 5;
#X obj 108 270 / 3;
#X floatatom 108 292 5 0 0 0 - - -;
#X obj 40 249 * 5;
#X obj 40 270 / 4;
#X floatatom 40 292 5 0 0 0 - - -;
#X obj -24 352 switch 6;
#X floatatom -37 126 5 0 0 0 - - -;
#X floatatom -24 374 5 0 0 0 - - -;
#X obj -37 149 trigger b f;
#X obj 87 65 random 6;
#X obj 87 89 + 1;
#X obj 87 45 bng 15 250 50 0 empty empty empty 17 7 0 10 -262144 -1
-1;
#X obj -37 21 inlet a;
#X obj -24 398 outlet foo;
#X obj 87 22 inlet b;
#X obj -88 149 r freq1;
#X obj 139 22 r random1;
#X connect 0 0 1 0;
#X connect 0 0 4 0;
#X connect 0 0 7 0;
#X connect 0 0 9 0;
#X connect 0 0 11 0;
#X connect 0 0 14 0;
#X connect 1 0 2 0;
#X connect 2 0 3 0;
#X connect 3 0 17 4;
#X connect 4 0 5 0;
#X connect 5 0 6 0;
#X connect 6 0 17 2;
#X connect 7 0 8 0;
#X connect 8 0 17 1;
#X connect 9 0 10 0;
#X connect 10 0 17 6;
#X connect 11 0 12 0;
#X connect 12 0 13 0;
#X connect 13 0 17 5;
#X connect 14 0 15 0;
#X connect 15 0 16 0;
#X connect 16 0 17 3;
#X connect 17 0 19 0;
#X connect 18 0 20 0;
#X connect 19 0 25 0;
#X connect 20 0 0 0;
#X connect 20 1 17 0;
#X connect 21 0 22 0;
#X connect 22 0 18 0;
#X connect 23 0 21 0;
#X connect 24 0 18 0;
#X connect 26 0 23 0;
#X connect 27 0 0 0;
#X connect 28 0 23 0;
#X restore 1689 230 pd penta;
#X floatatom 1255 444 5 0 0 0 - - -;
#X obj 1293 445 bng 15 250 50 0 empty empty empty 17 7 0 10 -262144
-1 -1;
#N canvas 102 186 600 518 penta 0;
#X floatatom -36 182 5 0 0 0 - - -;
#X obj 74 249 * 3;
#X obj 74 270 / 2;
#X floatatom 74 292 5 0 0 0 - - -;
#X obj 6 249 * 9;
#X obj 6 270 / 8;
#X floatatom 6 292 5 0 0 0 - - -;
#X obj -28 249 * 1;
#X floatatom -28 292 5 0 0 0 - - -;
#X obj 142 249 * 2;
#X floatatom 142 292 5 0 0 0 - - -;
#X obj 108 249 * 5;
#X obj 108 270 / 3;
#X floatatom 108 292 5 0 0 0 - - -;
#X obj 40 249 * 5;
#X obj 40 270 / 4;
#X floatatom 40 292 5 0 0 0 - - -;
#X obj -24 352 switch 6;
#X floatatom -37 126 5 0 0 0 - - -;
#X floatatom -24 374 5 0 0 0 - - -;
#X obj -37 149 trigger b f;
#X obj 87 65 random 6;
#X obj 87 89 + 1;
#X obj 87 45 bng 15 250 50 0 empty empty empty 17 7 0 10 -262144 -1
-1;
#X obj -37 21 inlet a;
#X obj -24 398 outlet foo;
#X obj 87 22 inlet b;
#X obj -88 149 r freq1;
#X obj 139 22 r random1;
#X connect 0 0 1 0;
#X connect 0 0 4 0;
#X connect 0 0 7 0;
#X connect 0 0 9 0;
#X connect 0 0 11 0;
#X connect 0 0 14 0;
#X connect 1 0 2 0;
#X connect 2 0 3 0;
#X connect 3 0 17 4;
#X connect 4 0 5 0;
#X connect 5 0 6 0;
#X connect 6 0 17 2;
#X connect 7 0 8 0;
#X connect 8 0 17 1;
#X connect 9 0 10 0;
#X connect 10 0 17 6;
#X connect 11 0 12 0;
#X connect 12 0 13 0;
#X connect 13 0 17 5;
#X connect 14 0 15 0;
#X connect 15 0 16 0;
#X connect 16 0 17 3;
#X connect 17 0 19 0;
#X connect 18 0 20 0;
#X connect 19 0 25 0;
#X connect 20 0 0 0;
#X connect 20 1 17 0;
#X connect 21 0 22 0;
#X connect 22 0 18 0;
#X connect 23 0 21 0;
#X connect 24 0 18 0;
#X connect 26 0 23 0;
#X connect 27 0 0 0;
#X connect 28 0 23 0;
#X restore 1255 463 pd penta;
#X floatatom 1317 444 5 0 0 0 - - -;
#X obj 1355 445 bng 15 250 50 0 empty empty empty 17 7 0 10 -262144
-1 -1;
#N canvas 102 186 600 518 penta 0;
#X floatatom -36 182 5 0 0 0 - - -;
#X obj 74 249 * 3;
#X obj 74 270 / 2;
#X floatatom 74 292 5 0 0 0 - - -;
#X obj 6 249 * 9;
#X obj 6 270 / 8;
#X floatatom 6 292 5 0 0 0 - - -;
#X obj -28 249 * 1;
#X floatatom -28 292 5 0 0 0 - - -;
#X obj 142 249 * 2;
#X floatatom 142 292 5 0 0 0 - - -;
#X obj 108 249 * 5;
#X obj 108 270 / 3;
#X floatatom 108 292 5 0 0 0 - - -;
#X obj 40 249 * 5;
#X obj 40 270 / 4;
#X floatatom 40 292 5 0 0 0 - - -;
#X obj -24 352 switch 6;
#X floatatom -37 126 5 0 0 0 - - -;
#X floatatom -24 374 5 0 0 0 - - -;
#X obj -37 149 trigger b f;
#X obj 87 65 random 6;
#X obj 87 89 + 1;
#X obj 87 45 bng 15 250 50 0 empty empty empty 17 7 0 10 -262144 -1
-1;
#X obj -37 21 inlet a;
#X obj -24 398 outlet foo;
#X obj 87 22 inlet b;
#X obj -88 149 r freq1;
#X obj 139 22 r random1;
#X connect 0 0 1 0;
#X connect 0 0 4 0;
#X connect 0 0 7 0;
#X connect 0 0 9 0;
#X connect 0 0 11 0;
#X connect 0 0 14 0;
#X connect 1 0 2 0;
#X connect 2 0 3 0;
#X connect 3 0 17 4;
#X connect 4 0 5 0;
#X connect 5 0 6 0;
#X connect 6 0 17 2;
#X connect 7 0 8 0;
#X connect 8 0 17 1;
#X connect 9 0 10 0;
#X connect 10 0 17 6;
#X connect 11 0 12 0;
#X connect 12 0 13 0;
#X connect 13 0 17 5;
#X connect 14 0 15 0;
#X connect 15 0 16 0;
#X connect 16 0 17 3;
#X connect 17 0 19 0;
#X connect 18 0 20 0;
#X connect 19 0 25 0;
#X connect 20 0 0 0;
#X connect 20 1 17 0;
#X connect 21 0 22 0;
#X connect 22 0 18 0;
#X connect 23 0 21 0;
#X connect 24 0 18 0;
#X connect 26 0 23 0;
#X connect 27 0 0 0;
#X connect 28 0 23 0;
#X restore 1317 463 pd penta;
#X floatatom 1379 444 5 0 0 0 - - -;
#X obj 1417 445 bng 15 250 50 0 empty empty empty 17 7 0 10 -262144
-1 -1;
#N canvas 102 186 600 518 penta 0;
#X floatatom -36 182 5 0 0 0 - - -;
#X obj 74 249 * 3;
#X obj 74 270 / 2;
#X floatatom 74 292 5 0 0 0 - - -;
#X obj 6 249 * 9;
#X obj 6 270 / 8;
#X floatatom 6 292 5 0 0 0 - - -;
#X obj -28 249 * 1;
#X floatatom -28 292 5 0 0 0 - - -;
#X obj 142 249 * 2;
#X floatatom 142 292 5 0 0 0 - - -;
#X obj 108 249 * 5;
#X obj 108 270 / 3;
#X floatatom 108 292 5 0 0 0 - - -;
#X obj 40 249 * 5;
#X obj 40 270 / 4;
#X floatatom 40 292 5 0 0 0 - - -;
#X obj -24 352 switch 6;
#X floatatom -37 126 5 0 0 0 - - -;
#X floatatom -24 374 5 0 0 0 - - -;
#X obj -37 149 trigger b f;
#X obj 87 65 random 6;
#X obj 87 89 + 1;
#X obj 87 45 bng 15 250 50 0 empty empty empty 17 7 0 10 -262144 -1
-1;
#X obj -37 21 inlet a;
#X obj -24 398 outlet foo;
#X obj 87 22 inlet b;
#X obj -88 149 r freq1;
#X obj 139 22 r random1;
#X connect 0 0 1 0;
#X connect 0 0 4 0;
#X connect 0 0 7 0;
#X connect 0 0 9 0;
#X connect 0 0 11 0;
#X connect 0 0 14 0;
#X connect 1 0 2 0;
#X connect 2 0 3 0;
#X connect 3 0 17 4;
#X connect 4 0 5 0;
#X connect 5 0 6 0;
#X connect 6 0 17 2;
#X connect 7 0 8 0;
#X connect 8 0 17 1;
#X connect 9 0 10 0;
#X connect 10 0 17 6;
#X connect 11 0 12 0;
#X connect 12 0 13 0;
#X connect 13 0 17 5;
#X connect 14 0 15 0;
#X connect 15 0 16 0;
#X connect 16 0 17 3;
#X connect 17 0 19 0;
#X connect 18 0 20 0;
#X connect 19 0 25 0;
#X connect 20 0 0 0;
#X connect 20 1 17 0;
#X connect 21 0 22 0;
#X connect 22 0 18 0;
#X connect 23 0 21 0;
#X connect 24 0 18 0;
#X connect 26 0 23 0;
#X connect 27 0 0 0;
#X connect 28 0 23 0;
#X restore 1379 463 pd penta;
#X floatatom 1447 444 5 0 0 0 - - -;
#X obj 1485 445 bng 15 250 50 0 empty empty empty 17 7 0 10 -262144
-1 -1;
#N canvas 102 186 600 518 penta 0;
#X floatatom -36 182 5 0 0 0 - - -;
#X obj 74 249 * 3;
#X obj 74 270 / 2;
#X floatatom 74 292 5 0 0 0 - - -;
#X obj 6 249 * 9;
#X obj 6 270 / 8;
#X floatatom 6 292 5 0 0 0 - - -;
#X obj -28 249 * 1;
#X floatatom -28 292 5 0 0 0 - - -;
#X obj 142 249 * 2;
#X floatatom 142 292 5 0 0 0 - - -;
#X obj 108 249 * 5;
#X obj 108 270 / 3;
#X floatatom 108 292 5 0 0 0 - - -;
#X obj 40 249 * 5;
#X obj 40 270 / 4;
#X floatatom 40 292 5 0 0 0 - - -;
#X obj -24 352 switch 6;
#X floatatom -37 126 5 0 0 0 - - -;
#X floatatom -24 374 5 0 0 0 - - -;
#X obj -37 149 trigger b f;
#X obj 87 65 random 6;
#X obj 87 89 + 1;
#X obj 87 45 bng 15 250 50 0 empty empty empty 17 7 0 10 -262144 -1
-1;
#X obj -37 21 inlet a;
#X obj -24 398 outlet foo;
#X obj 87 22 inlet b;
#X obj -88 149 r freq1;
#X obj 139 22 r random1;
#X connect 0 0 1 0;
#X connect 0 0 4 0;
#X connect 0 0 7 0;
#X connect 0 0 9 0;
#X connect 0 0 11 0;
#X connect 0 0 14 0;
#X connect 1 0 2 0;
#X connect 2 0 3 0;
#X connect 3 0 17 4;
#X connect 4 0 5 0;
#X connect 5 0 6 0;
#X connect 6 0 17 2;
#X connect 7 0 8 0;
#X connect 8 0 17 1;
#X connect 9 0 10 0;
#X connect 10 0 17 6;
#X connect 11 0 12 0;
#X connect 12 0 13 0;
#X connect 13 0 17 5;
#X connect 14 0 15 0;
#X connect 15 0 16 0;
#X connect 16 0 17 3;
#X connect 17 0 19 0;
#X connect 18 0 20 0;
#X connect 19 0 25 0;
#X connect 20 0 0 0;
#X connect 20 1 17 0;
#X connect 21 0 22 0;
#X connect 22 0 18 0;
#X connect 23 0 21 0;
#X connect 24 0 18 0;
#X connect 26 0 23 0;
#X connect 27 0 0 0;
#X connect 28 0 23 0;
#X restore 1447 463 pd penta;
#X floatatom 1515 444 5 0 0 0 - - -;
#X obj 1553 445 bng 15 250 50 0 empty empty empty 17 7 0 10 -262144
-1 -1;
#N canvas 102 186 600 518 penta 0;
#X floatatom -36 182 5 0 0 0 - - -;
#X obj 74 249 * 3;
#X obj 74 270 / 2;
#X floatatom 74 292 5 0 0 0 - - -;
#X obj 6 249 * 9;
#X obj 6 270 / 8;
#X floatatom 6 292 5 0 0 0 - - -;
#X obj -28 249 * 1;
#X floatatom -28 292 5 0 0 0 - - -;
#X obj 142 249 * 2;
#X floatatom 142 292 5 0 0 0 - - -;
#X obj 108 249 * 5;
#X obj 108 270 / 3;
#X floatatom 108 292 5 0 0 0 - - -;
#X obj 40 249 * 5;
#X obj 40 270 / 4;
#X floatatom 40 292 5 0 0 0 - - -;
#X obj -24 352 switch 6;
#X floatatom -37 126 5 0 0 0 - - -;
#X floatatom -24 374 5 0 0 0 - - -;
#X obj -37 149 trigger b f;
#X obj 87 65 random 6;
#X obj 87 89 + 1;
#X obj 87 45 bng 15 250 50 0 empty empty empty 17 7 0 10 -262144 -1
-1;
#X obj -37 21 inlet a;
#X obj -24 398 outlet foo;
#X obj 87 22 inlet b;
#X obj -88 149 r freq1;
#X obj 139 22 r random1;
#X connect 0 0 1 0;
#X connect 0 0 4 0;
#X connect 0 0 7 0;
#X connect 0 0 9 0;
#X connect 0 0 11 0;
#X connect 0 0 14 0;
#X connect 1 0 2 0;
#X connect 2 0 3 0;
#X connect 3 0 17 4;
#X connect 4 0 5 0;
#X connect 5 0 6 0;
#X connect 6 0 17 2;
#X connect 7 0 8 0;
#X connect 8 0 17 1;
#X connect 9 0 10 0;
#X connect 10 0 17 6;
#X connect 11 0 12 0;
#X connect 12 0 13 0;
#X connect 13 0 17 5;
#X connect 14 0 15 0;
#X connect 15 0 16 0;
#X connect 16 0 17 3;
#X connect 17 0 19 0;
#X connect 18 0 20 0;
#X connect 19 0 25 0;
#X connect 20 0 0 0;
#X connect 20 1 17 0;
#X connect 21 0 22 0;
#X connect 22 0 18 0;
#X connect 23 0 21 0;
#X connect 24 0 18 0;
#X connect 26 0 23 0;
#X connect 27 0 0 0;
#X connect 28 0 23 0;
#X restore 1515 463 pd penta;
#X floatatom 1583 444 5 0 0 0 - - -;
#X obj 1621 445 bng 15 250 50 0 empty empty empty 17 7 0 10 -262144
-1 -1;
#N canvas 102 186 600 518 penta 0;
#X floatatom -36 182 5 0 0 0 - - -;
#X obj 74 249 * 3;
#X obj 74 270 / 2;
#X floatatom 74 292 5 0 0 0 - - -;
#X obj 6 249 * 9;
#X obj 6 270 / 8;
#X floatatom 6 292 5 0 0 0 - - -;
#X obj -28 249 * 1;
#X floatatom -28 292 5 0 0 0 - - -;
#X obj 142 249 * 2;
#X floatatom 142 292 5 0 0 0 - - -;
#X obj 108 249 * 5;
#X obj 108 270 / 3;
#X floatatom 108 292 5 0 0 0 - - -;
#X obj 40 249 * 5;
#X obj 40 270 / 4;
#X floatatom 40 292 5 0 0 0 - - -;
#X obj -24 352 switch 6;
#X floatatom -37 126 5 0 0 0 - - -;
#X floatatom -24 374 5 0 0 0 - - -;
#X obj -37 149 trigger b f;
#X obj 87 65 random 6;
#X obj 87 89 + 1;
#X obj 87 45 bng 15 250 50 0 empty empty empty 17 7 0 10 -262144 -1
-1;
#X obj -37 21 inlet a;
#X obj -24 398 outlet foo;
#X obj 87 22 inlet b;
#X obj -88 149 r freq1;
#X obj 139 22 r random1;
#X connect 0 0 1 0;
#X connect 0 0 4 0;
#X connect 0 0 7 0;
#X connect 0 0 9 0;
#X connect 0 0 11 0;
#X connect 0 0 14 0;
#X connect 1 0 2 0;
#X connect 2 0 3 0;
#X connect 3 0 17 4;
#X connect 4 0 5 0;
#X connect 5 0 6 0;
#X connect 6 0 17 2;
#X connect 7 0 8 0;
#X connect 8 0 17 1;
#X connect 9 0 10 0;
#X connect 10 0 17 6;
#X connect 11 0 12 0;
#X connect 12 0 13 0;
#X connect 13 0 17 5;
#X connect 14 0 15 0;
#X connect 15 0 16 0;
#X connect 16 0 17 3;
#X connect 17 0 19 0;
#X connect 18 0 20 0;
#X connect 19 0 25 0;
#X connect 20 0 0 0;
#X connect 20 1 17 0;
#X connect 21 0 22 0;
#X connect 22 0 18 0;
#X connect 23 0 21 0;
#X connect 24 0 18 0;
#X connect 26 0 23 0;
#X connect 27 0 0 0;
#X connect 28 0 23 0;
#X restore 1583 463 pd penta;
#X floatatom 1651 444 5 0 0 0 - - -;
#X obj 1689 445 bng 15 250 50 0 empty empty empty 17 7 0 10 -262144
-1 -1;
#N canvas 102 186 600 518 penta 0;
#X floatatom -36 182 5 0 0 0 - - -;
#X obj 74 249 * 3;
#X obj 74 270 / 2;
#X floatatom 74 292 5 0 0 0 - - -;
#X obj 6 249 * 9;
#X obj 6 270 / 8;
#X floatatom 6 292 5 0 0 0 - - -;
#X obj -28 249 * 1;
#X floatatom -28 292 5 0 0 0 - - -;
#X obj 142 249 * 2;
#X floatatom 142 292 5 0 0 0 - - -;
#X obj 108 249 * 5;
#X obj 108 270 / 3;
#X floatatom 108 292 5 0 0 0 - - -;
#X obj 40 249 * 5;
#X obj 40 270 / 4;
#X floatatom 40 292 5 0 0 0 - - -;
#X obj -24 352 switch 6;
#X floatatom -37 126 5 0 0 0 - - -;
#X floatatom -24 374 5 0 0 0 - - -;
#X obj -37 149 trigger b f;
#X obj 87 65 random 6;
#X obj 87 89 + 1;
#X obj 87 45 bng 15 250 50 0 empty empty empty 17 7 0 10 -262144 -1
-1;
#X obj -37 21 inlet a;
#X obj -24 398 outlet foo;
#X obj 87 22 inlet b;
#X obj -88 149 r freq1;
#X obj 139 22 r random1;
#X connect 0 0 1 0;
#X connect 0 0 4 0;
#X connect 0 0 7 0;
#X connect 0 0 9 0;
#X connect 0 0 11 0;
#X connect 0 0 14 0;
#X connect 1 0 2 0;
#X connect 2 0 3 0;
#X connect 3 0 17 4;
#X connect 4 0 5 0;
#X connect 5 0 6 0;
#X connect 6 0 17 2;
#X connect 7 0 8 0;
#X connect 8 0 17 1;
#X connect 9 0 10 0;
#X connect 10 0 17 6;
#X connect 11 0 12 0;
#X connect 12 0 13 0;
#X connect 13 0 17 5;
#X connect 14 0 15 0;
#X connect 15 0 16 0;
#X connect 16 0 17 3;
#X connect 17 0 19 0;
#X connect 18 0 20 0;
#X connect 19 0 25 0;
#X connect 20 0 0 0;
#X connect 20 1 17 0;
#X connect 21 0 22 0;
#X connect 22 0 18 0;
#X connect 23 0 21 0;
#X connect 24 0 18 0;
#X connect 26 0 23 0;
#X connect 27 0 0 0;
#X connect 28 0 23 0;
#X restore 1651 463 pd penta;
#X floatatom 1719 444 5 0 0 0 - - -;
#X obj 1757 445 bng 15 250 50 0 empty empty empty 17 7 0 10 -262144
-1 -1;
#N canvas 102 186 600 518 penta 0;
#X floatatom -36 182 5 0 0 0 - - -;
#X obj 74 249 * 3;
#X obj 74 270 / 2;
#X floatatom 74 292 5 0 0 0 - - -;
#X obj 6 249 * 9;
#X obj 6 270 / 8;
#X floatatom 6 292 5 0 0 0 - - -;
#X obj -28 249 * 1;
#X floatatom -28 292 5 0 0 0 - - -;
#X obj 142 249 * 2;
#X floatatom 142 292 5 0 0 0 - - -;
#X obj 108 249 * 5;
#X obj 108 270 / 3;
#X floatatom 108 292 5 0 0 0 - - -;
#X obj 40 249 * 5;
#X obj 40 270 / 4;
#X floatatom 40 292 5 0 0 0 - - -;
#X obj -24 352 switch 6;
#X floatatom -37 126 5 0 0 0 - - -;
#X floatatom -24 374 5 0 0 0 - - -;
#X obj -37 149 trigger b f;
#X obj 87 65 random 6;
#X obj 87 89 + 1;
#X obj 87 45 bng 15 250 50 0 empty empty empty 17 7 0 10 -262144 -1
-1;
#X obj -37 21 inlet a;
#X obj -24 398 outlet foo;
#X obj 87 22 inlet b;
#X obj -88 149 r freq1;
#X obj 139 22 r random1;
#X connect 0 0 1 0;
#X connect 0 0 4 0;
#X connect 0 0 7 0;
#X connect 0 0 9 0;
#X connect 0 0 11 0;
#X connect 0 0 14 0;
#X connect 1 0 2 0;
#X connect 2 0 3 0;
#X connect 3 0 17 4;
#X connect 4 0 5 0;
#X connect 5 0 6 0;
#X connect 6 0 17 2;
#X connect 7 0 8 0;
#X connect 8 0 17 1;
#X connect 9 0 10 0;
#X connect 10 0 17 6;
#X connect 11 0 12 0;
#X connect 12 0 13 0;
#X connect 13 0 17 5;
#X connect 14 0 15 0;
#X connect 15 0 16 0;
#X connect 16 0 17 3;
#X connect 17 0 19 0;
#X connect 18 0 20 0;
#X connect 19 0 25 0;
#X connect 20 0 0 0;
#X connect 20 1 17 0;
#X connect 21 0 22 0;
#X connect 22 0 18 0;
#X connect 23 0 21 0;
#X connect 24 0 18 0;
#X connect 26 0 23 0;
#X connect 27 0 0 0;
#X connect 28 0 23 0;
#X restore 1719 463 pd penta;
#X obj 1260 885 *~;
#X obj 1358 724 r metro;
#X obj 1327 703 select 0 1 2 3 4 5 6;
#X msg 1450 809 0 20;
#X msg 1485 809 1 20;
#X floatatom 1628 764 5 0 0 0 - - -;
#X obj 1643 718 r metro;
#X obj 1628 786 / 2;
#X msg 1628 809 0 \, 1 \$1 \, 0 \$1 \$1;
#X obj 1628 742 f;
#X obj 1343 745 f;
#X floatatom 1742 763 5 0 0 0 - - -;
#X obj 1757 717 r metro;
#X obj 1742 785 / 2;
#X obj 1742 741 f;
#X msg 1742 808 1 \, 0 0 \$1;
#X obj 1255 399 f;
#X floatatom 1270 380 5 0 0 0 - - -;
#X obj 1255 358 random 7;
#X obj 1255 340 bng 15 250 50 0 empty empty empty 17 7 0 10 -262144
-1 -1;
#X obj 1255 320 r random1;
#X obj 1317 399 f;
#X floatatom 1332 380 5 0 0 0 - - -;
#X obj 1317 358 random 7;
#X obj 1317 340 bng 15 250 50 0 empty empty empty 17 7 0 10 -262144
-1 -1;
#X obj 1317 320 r random1;
#X obj 1379 399 f;
#X floatatom 1394 380 5 0 0 0 - - -;
#X obj 1379 358 random 7;
#X obj 1379 340 bng 15 250 50 0 empty empty empty 17 7 0 10 -262144
-1 -1;
#X obj 1379 320 r random1;
#X msg 1520 809 0 \, 1 20 \, 0 20 40;
#X obj 1441 399 f;
#X floatatom 1456 380 5 0 0 0 - - -;
#X obj 1441 358 random 7;
#X obj 1441 340 bng 15 250 50 0 empty empty empty 17 7 0 10 -262144
-1 -1;
#X obj 1441 320 r random1;
#X obj 1504 399 f;
#X floatatom 1519 380 5 0 0 0 - - -;
#X obj 1504 358 random 7;
#X obj 1504 340 bng 15 250 50 0 empty empty empty 17 7 0 10 -262144
-1 -1;
#X obj 1504 320 r random1;
#X obj 1566 399 f;
#X floatatom 1581 380 5 0 0 0 - - -;
#X obj 1566 358 random 7;
#X obj 1566 340 bng 15 250 50 0 empty empty empty 17 7 0 10 -262144
-1 -1;
#X obj 1566 320 r random1;
#X obj 1628 399 f;
#X floatatom 1643 380 5 0 0 0 - - -;
#X obj 1628 358 random 7;
#X obj 1628 340 bng 15 250 50 0 empty empty empty 17 7 0 10 -262144
-1 -1;
#X obj 1628 320 r random1;
#X obj 1690 399 f;
#X floatatom 1705 380 5 0 0 0 - - -;
#X obj 1690 358 random 7;
#X obj 1690 340 bng 15 250 50 0 empty empty empty 17 7 0 10 -262144
-1 -1;
#X obj 1690 320 r random1;
#X obj 1255 631 f;
#X floatatom 1270 612 5 0 0 0 - - -;
#X obj 1255 590 random 7;
#X obj 1255 572 bng 15 250 50 0 empty empty empty 17 7 0 10 -262144
-1 -1;
#X obj 1255 552 r random1;
#X obj 1317 631 f;
#X floatatom 1332 612 5 0 0 0 - - -;
#X obj 1317 590 random 7;
#X obj 1317 572 bng 15 250 50 0 empty empty empty 17 7 0 10 -262144
-1 -1;
#X obj 1317 552 r random1;
#X obj 1379 631 f;
#X floatatom 1394 612 5 0 0 0 - - -;
#X obj 1379 590 random 7;
#X obj 1379 572 bng 15 250 50 0 empty empty empty 17 7 0 10 -262144
-1 -1;
#X obj 1379 552 r random1;
#X obj 1447 631 f;
#X floatatom 1462 612 5 0 0 0 - - -;
#X obj 1447 590 random 7;
#X obj 1447 572 bng 15 250 50 0 empty empty empty 17 7 0 10 -262144
-1 -1;
#X obj 1447 552 r random1;
#X obj 1515 631 f;
#X floatatom 1530 612 5 0 0 0 - - -;
#X obj 1515 590 random 7;
#X obj 1515 572 bng 15 250 50 0 empty empty empty 17 7 0 10 -262144
-1 -1;
#X obj 1515 552 r random1;
#X obj 1583 631 f;
#X floatatom 1598 612 5 0 0 0 - - -;
#X obj 1583 590 random 7;
#X obj 1583 572 bng 15 250 50 0 empty empty empty 17 7 0 10 -262144
-1 -1;
#X obj 1583 552 r random1;
#X obj 1651 631 f;
#X floatatom 1666 612 5 0 0 0 - - -;
#X obj 1651 590 random 7;
#X obj 1651 572 bng 15 250 50 0 empty empty empty 17 7 0 10 -262144
-1 -1;
#X obj 1651 552 r random1;
#X obj 1719 631 f;
#X floatatom 1734 612 5 0 0 0 - - -;
#X obj 1719 590 random 7;
#X obj 1719 572 bng 15 250 50 0 empty empty empty 17 7 0 10 -262144
-1 -1;
#X obj 1719 552 r random1;
#X obj 1255 296 s d1;
#X obj 1379 296 s d1;
#X obj 1317 296 s d1;
#X obj 1441 296 s d1;
#X obj 1503 296 s d1;
#X obj 1565 296 s d1;
#X obj 1627 296 s d1;
#X obj 1689 296 s d1;
#X obj 1719 530 s d1;
#X obj 1651 530 s d1;
#X obj 1583 530 s d1;
#X obj 1515 530 s d1;
#X obj 1447 530 s d1;
#X obj 1379 530 s d1;
#X obj 1317 530 s d1;
#X obj 1255 530 s d1;
#X obj 1260 784 r d1;
#X obj 1260 852 osc~;
#X obj 1255 421 s e1;
#X obj 1317 421 s e1;
#X obj 1379 421 s e1;
#X obj 1441 421 s e1;
#X obj 1504 421 s e1;
#X obj 1566 421 s e1;
#X obj 1628 421 s e1;
#X obj 1690 421 s e1;
#X obj 1719 653 s e1;
#X obj 1651 653 s e1;
#X obj 1583 653 s e1;
#X obj 1515 653 s e1;
#X obj 1447 653 s e1;
#X obj 1379 653 s e1;
#X obj 1317 653 s e1;
#X obj 1255 653 s e1;
#X obj 1327 681 r e1;
#X obj 1260 828 * 4;
#X connect 0 0 456 0;
#X connect 1 0 2 0;
#X connect 1 0 4 0;
#X connect 2 0 5 0;
#X connect 2 0 21 0;
#X connect 2 1 6 0;
#X connect 2 1 23 0;
#X connect 2 2 7 0;
#X connect 2 2 24 0;
#X connect 2 3 8 0;
#X connect 2 3 22 0;
#X connect 2 4 9 0;
#X connect 2 4 25 0;
#X connect 2 5 10 0;
#X connect 2 5 27 0;
#X connect 2 6 11 0;
#X connect 2 6 28 0;
#X connect 2 7 12 0;
#X connect 2 7 26 0;
#X connect 2 8 13 0;
#X connect 2 8 29 0;
#X connect 2 9 14 0;
#X connect 2 9 31 0;
#X connect 2 10 15 0;
#X connect 2 10 32 0;
#X connect 2 11 16 0;
#X connect 2 11 30 0;
#X connect 2 12 17 0;
#X connect 2 12 33 0;
#X connect 2 13 18 0;
#X connect 2 13 35 0;
#X connect 2 14 19 0;
#X connect 2 14 36 0;
#X connect 2 15 20 0;
#X connect 2 15 34 0;
#X connect 37 0 39 0;
#X connect 37 0 179 0;
#X connect 38 0 39 1;
#X connect 39 0 85 0;
#X connect 40 0 41 1;
#X connect 41 0 87 0;
#X connect 42 0 41 0;
#X connect 42 0 187 0;
#X connect 43 0 44 1;
#X connect 44 0 86 0;
#X connect 45 0 44 0;
#X connect 45 0 193 0;
#X connect 46 0 47 1;
#X connect 47 0 88 0;
#X connect 48 0 47 0;
#X connect 48 0 200 0;
#X connect 49 0 50 1;
#X connect 50 0 89 0;
#X connect 51 0 52 1;
#X connect 52 0 90 0;
#X connect 53 0 54 1;
#X connect 54 0 91 0;
#X connect 55 0 56 1;
#X connect 56 0 92 0;
#X connect 57 0 50 0;
#X connect 57 0 206 0;
#X connect 58 0 52 0;
#X connect 58 0 212 0;
#X connect 59 0 54 0;
#X connect 59 0 218 0;
#X connect 60 0 56 0;
#X connect 60 0 224 0;
#X connect 61 0 62 1;
#X connect 62 0 93 0;
#X connect 63 0 64 1;
#X connect 64 0 95 0;
#X connect 65 0 66 1;
#X connect 66 0 94 0;
#X connect 67 0 68 1;
#X connect 68 0 96 0;
#X connect 69 0 70 1;
#X connect 70 0 97 0;
#X connect 71 0 72 1;
#X connect 72 0 98 0;
#X connect 73 0 74 1;
#X connect 74 0 99 0;
#X connect 75 0 76 1;
#X connect 76 0 100 0;
#X connect 77 0 62 0;
#X connect 77 0 230 0;
#X connect 78 0 64 0;
#X connect 78 0 236 0;
#X connect 79 0 66 0;
#X connect 79 0 242 0;
#X connect 80 0 68 0;
#X connect 80 0 248 0;
#X connect 81 0 70 0;
#X connect 81 0 254 0;
#X connect 82 0 72 0;
#X connect 82 0 260 0;
#X connect 83 0 74 0;
#X connect 83 0 266 0;
#X connect 84 0 76 0;
#X connect 84 0 272 0;
#X connect 101 0 102 0;
#X connect 102 0 103 0;
#X connect 103 0 161 0;
#X connect 104 0 105 0;
#X connect 106 0 113 0;
#X connect 107 0 113 1;
#X connect 108 0 161 1;
#X connect 109 0 108 0;
#X connect 110 0 109 0;
#X connect 111 0 110 0;
#X connect 112 0 162 0;
#X connect 112 0 456 1;
#X connect 113 0 38 0;
#X connect 115 0 185 0;
#X connect 116 0 118 0;
#X connect 117 0 118 1;
#X connect 118 0 40 0;
#X connect 119 0 121 0;
#X connect 120 0 121 1;
#X connect 121 0 43 0;
#X connect 122 0 124 0;
#X connect 123 0 124 1;
#X connect 124 0 46 0;
#X connect 125 0 127 0;
#X connect 126 0 127 1;
#X connect 127 0 49 0;
#X connect 128 0 130 0;
#X connect 129 0 130 1;
#X connect 130 0 51 0;
#X connect 131 0 133 0;
#X connect 132 0 133 1;
#X connect 133 0 53 0;
#X connect 134 0 136 0;
#X connect 135 0 136 1;
#X connect 136 0 55 0;
#X connect 137 0 139 0;
#X connect 138 0 139 1;
#X connect 139 0 61 0;
#X connect 140 0 142 0;
#X connect 141 0 142 1;
#X connect 142 0 63 0;
#X connect 143 0 145 0;
#X connect 144 0 145 1;
#X connect 145 0 65 0;
#X connect 146 0 148 0;
#X connect 147 0 148 1;
#X connect 148 0 67 0;
#X connect 149 0 151 0;
#X connect 150 0 151 1;
#X connect 151 0 69 0;
#X connect 152 0 154 0;
#X connect 153 0 154 1;
#X connect 154 0 71 0;
#X connect 155 0 157 0;
#X connect 156 0 157 1;
#X connect 157 0 73 0;
#X connect 158 0 160 0;
#X connect 159 0 160 1;
#X connect 160 0 75 0;
#X connect 161 0 3 0;
#X connect 161 0 3 1;
#X connect 163 0 172 1;
#X connect 164 1 172 0;
#X connect 164 2 165 0;
#X connect 164 3 166 0;
#X connect 164 4 199 0;
#X connect 164 5 171 0;
#X connect 164 6 176 0;
#X connect 165 0 108 0;
#X connect 166 0 108 0;
#X connect 167 0 169 0;
#X connect 168 0 171 1;
#X connect 169 0 170 0;
#X connect 170 0 108 0;
#X connect 171 0 167 0;
#X connect 172 0 111 0;
#X connect 173 0 175 0;
#X connect 174 0 176 1;
#X connect 175 0 177 0;
#X connect 176 0 173 0;
#X connect 177 0 108 0;
#X connect 179 0 181 0;
#X connect 180 0 179 1;
#X connect 182 0 164 0;
#X connect 183 0 180 0;
#X connect 184 0 183 0;
#X connect 186 0 184 0;
#X connect 187 0 189 0;
#X connect 188 0 187 1;
#X connect 190 0 188 0;
#X connect 191 0 190 0;
#X connect 192 0 191 0;
#X connect 193 0 195 0;
#X connect 194 0 193 1;
#X connect 196 0 194 0;
#X connect 197 0 196 0;
#X connect 198 0 197 0;
#X connect 199 0 108 0;
#X connect 200 0 202 0;
#X connect 201 0 200 1;
#X connect 203 0 201 0;
#X connect 204 0 203 0;
#X connect 205 0 204 0;
#X connect 206 0 208 0;
#X connect 207 0 206 1;
#X connect 209 0 207 0;
#X connect 210 0 209 0;
#X connect 211 0 210 0;
#X connect 212 0 214 0;
#X connect 213 0 212 1;
#X connect 215 0 213 0;
#X connect 216 0 215 0;
#X connect 217 0 216 0;
#X connect 218 0 220 0;
#X connect 219 0 218 1;
#X connect 221 0 219 0;
#X connect 222 0 221 0;
#X connect 223 0 222 0;
#X connect 224 0 226 0;
#X connect 225 0 224 1;
#X connect 227 0 225 0;
#X connect 228 0 227 0;
#X connect 229 0 228 0;
#X connect 230 0 232 0;
#X connect 231 0 230 1;
#X connect 233 0 231 0;
#X connect 234 0 233 0;
#X connect 235 0 234 0;
#X connect 236 0 238 0;
#X connect 237 0 236 1;
#X connect 239 0 237 0;
#X connect 240 0 239 0;
#X connect 241 0 240 0;
#X connect 242 0 244 0;
#X connect 243 0 242 1;
#X connect 245 0 243 0;
#X connect 246 0 245 0;
#X connect 247 0 246 0;
#X connect 248 0 250 0;
#X connect 249 0 248 1;
#X connect 251 0 249 0;
#X connect 252 0 251 0;
#X connect 253 0 252 0;
#X connect 254 0 256 0;
#X connect 255 0 254 1;
#X connect 257 0 255 0;
#X connect 258 0 257 0;
#X connect 259 0 258 0;
#X connect 260 0 262 0;
#X connect 261 0 260 1;
#X connect 263 0 261 0;
#X connect 264 0 263 0;
#X connect 265 0 264 0;
#X connect 266 0 268 0;
#X connect 267 0 266 1;
#X connect 269 0 267 0;
#X connect 270 0 269 0;
#X connect 271 0 270 0;
#X connect 272 0 274 0;
#X connect 273 0 272 1;
#X connect 275 0 273 0;
#X connect 276 0 275 0;
#X connect 277 0 276 0;
#X connect 279 0 278 0;
#X connect 279 0 278 1;
#X connect 280 0 281 1;
#X connect 281 0 300 0;
#X connect 282 0 281 0;
#X connect 283 0 282 0;
#X connect 284 0 283 0;
#X connect 285 0 300 0;
#X connect 286 0 285 0;
#X connect 287 0 286 0;
#X connect 288 0 287 0;
#X connect 289 0 285 1;
#X connect 290 0 300 0;
#X connect 291 0 290 0;
#X connect 292 0 291 0;
#X connect 293 0 292 0;
#X connect 294 0 300 0;
#X connect 295 0 294 0;
#X connect 296 0 295 0;
#X connect 297 0 296 0;
#X connect 298 0 290 1;
#X connect 299 0 294 1;
#X connect 301 0 279 0;
#X connect 302 0 301 0;
#X connect 303 0 319 0;
#X connect 304 0 303 0;
#X connect 305 0 304 0;
#X connect 306 0 305 0;
#X connect 307 0 319 0;
#X connect 308 0 307 0;
#X connect 309 0 308 0;
#X connect 310 0 309 0;
#X connect 311 0 319 0;
#X connect 312 0 311 0;
#X connect 313 0 312 0;
#X connect 314 0 313 0;
#X connect 315 0 319 0;
#X connect 316 0 315 0;
#X connect 317 0 316 0;
#X connect 318 0 317 0;
#X connect 320 0 303 1;
#X connect 321 0 307 1;
#X connect 322 0 311 1;
#X connect 323 0 315 1;
#X connect 324 0 340 0;
#X connect 325 0 324 0;
#X connect 326 0 325 0;
#X connect 327 0 326 0;
#X connect 328 0 340 0;
#X connect 329 0 328 0;
#X connect 330 0 329 0;
#X connect 331 0 330 0;
#X connect 332 0 340 0;
#X connect 333 0 332 0;
#X connect 334 0 333 0;
#X connect 335 0 334 0;
#X connect 336 0 340 0;
#X connect 337 0 336 0;
#X connect 338 0 337 0;
#X connect 339 0 338 0;
#X connect 341 0 357 0;
#X connect 342 0 341 0;
#X connect 343 0 342 0;
#X connect 344 0 343 0;
#X connect 345 0 357 0;
#X connect 346 0 345 0;
#X connect 347 0 346 0;
#X connect 348 0 347 0;
#X connect 349 0 357 0;
#X connect 350 0 349 0;
#X connect 351 0 350 0;
#X connect 352 0 351 0;
#X connect 353 0 357 0;
#X connect 354 0 353 0;
#X connect 355 0 354 0;
#X connect 356 0 355 0;
#X connect 358 0 324 1;
#X connect 359 0 328 1;
#X connect 360 0 332 1;
#X connect 361 0 336 1;
#X connect 362 0 341 1;
#X connect 363 0 345 1;
#X connect 364 0 349 1;
#X connect 365 0 353 1;
#X connect 367 0 368 1;
#X connect 368 0 447 0;
#X connect 369 0 368 0;
#X connect 370 0 369 0;
#X connect 371 0 370 0;
#X connect 372 0 447 0;
#X connect 373 0 372 0;
#X connect 374 0 373 0;
#X connect 375 0 374 0;
#X connect 376 0 372 1;
#X connect 377 0 447 0;
#X connect 378 0 377 0;
#X connect 379 0 378 0;
#X connect 380 0 379 0;
#X connect 381 0 447 0;
#X connect 382 0 381 0;
#X connect 383 0 382 0;
#X connect 384 0 383 0;
#X connect 385 0 377 1;
#X connect 386 0 381 1;
#X connect 387 0 448 0;
#X connect 388 0 387 0;
#X connect 389 0 388 0;
#X connect 390 0 389 0;
#X connect 391 0 448 0;
#X connect 392 0 391 0;
#X connect 393 0 392 0;
#X connect 394 0 393 0;
#X connect 395 0 448 0;
#X connect 396 0 395 0;
#X connect 397 0 396 0;
#X connect 398 0 397 0;
#X connect 399 0 448 0;
#X connect 400 0 399 0;
#X connect 401 0 400 0;
#X connect 402 0 401 0;
#X connect 403 0 387 1;
#X connect 404 0 391 1;
#X connect 405 0 395 1;
#X connect 406 0 399 1;
#X connect 407 0 449 0;
#X connect 408 0 407 0;
#X connect 409 0 408 0;
#X connect 410 0 409 0;
#X connect 411 0 449 0;
#X connect 412 0 411 0;
#X connect 413 0 412 0;
#X connect 414 0 413 0;
#X connect 415 0 449 0;
#X connect 416 0 415 0;
#X connect 417 0 416 0;
#X connect 418 0 417 0;
#X connect 419 0 449 0;
#X connect 420 0 419 0;
#X connect 421 0 420 0;
#X connect 422 0 421 0;
#X connect 423 0 450 0;
#X connect 424 0 423 0;
#X connect 425 0 424 0;
#X connect 426 0 425 0;
#X connect 427 0 450 0;
#X connect 428 0 427 0;
#X connect 429 0 428 0;
#X connect 430 0 429 0;
#X connect 431 0 450 0;
#X connect 432 0 431 0;
#X connect 433 0 432 0;
#X connect 434 0 433 0;
#X connect 435 0 450 0;
#X connect 436 0 435 0;
#X connect 437 0 436 0;
#X connect 438 0 437 0;
#X connect 439 0 407 1;
#X connect 440 0 411 1;
#X connect 441 0 415 1;
#X connect 442 0 419 1;
#X connect 443 0 423 1;
#X connect 444 0 427 1;
#X connect 445 0 431 1;
#X connect 446 0 435 1;
#X connect 451 0 455 0;
#X connect 452 0 366 0;
#X connect 452 0 366 1;
#X connect 453 0 452 1;
#X connect 454 0 452 0;
#X connect 455 0 453 0;
#X connect 456 0 1 0;
#X connect 461 0 463 0;
#X connect 461 0 578 0;
#X connect 462 0 463 1;
#X connect 463 0 659 0;
#X connect 464 0 465 1;
#X connect 465 0 661 0;
#X connect 466 0 465 0;
#X connect 466 0 583 0;
#X connect 467 0 468 1;
#X connect 468 0 660 0;
#X connect 469 0 468 0;
#X connect 469 0 588 0;
#X connect 470 0 471 1;
#X connect 471 0 662 0;
#X connect 472 0 471 0;
#X connect 472 0 594 0;
#X connect 473 0 474 1;
#X connect 474 0 663 0;
#X connect 475 0 476 1;
#X connect 476 0 664 0;
#X connect 477 0 478 1;
#X connect 478 0 665 0;
#X connect 479 0 480 1;
#X connect 480 0 666 0;
#X connect 481 0 474 0;
#X connect 481 0 599 0;
#X connect 482 0 476 0;
#X connect 482 0 604 0;
#X connect 483 0 478 0;
#X connect 483 0 609 0;
#X connect 484 0 480 0;
#X connect 484 0 614 0;
#X connect 485 0 486 1;
#X connect 486 0 674 0;
#X connect 487 0 488 1;
#X connect 488 0 673 0;
#X connect 489 0 490 1;
#X connect 490 0 672 0;
#X connect 491 0 492 1;
#X connect 492 0 671 0;
#X connect 493 0 494 1;
#X connect 494 0 670 0;
#X connect 495 0 496 1;
#X connect 496 0 669 0;
#X connect 497 0 498 1;
#X connect 498 0 668 0;
#X connect 499 0 500 1;
#X connect 500 0 667 0;
#X connect 501 0 486 0;
#X connect 501 0 619 0;
#X connect 502 0 488 0;
#X connect 502 0 624 0;
#X connect 503 0 490 0;
#X connect 503 0 629 0;
#X connect 504 0 492 0;
#X connect 504 0 634 0;
#X connect 505 0 494 0;
#X connect 505 0 639 0;
#X connect 506 0 496 0;
#X connect 506 0 644 0;
#X connect 507 0 498 0;
#X connect 507 0 649 0;
#X connect 508 0 500 0;
#X connect 508 0 654 0;
#X connect 509 0 694 0;
#X connect 510 0 516 0;
#X connect 511 0 516 1;
#X connect 512 0 562 1;
#X connect 513 0 512 0;
#X connect 514 0 513 0;
#X connect 515 0 514 0;
#X connect 516 0 462 0;
#X connect 517 0 519 0;
#X connect 518 0 519 1;
#X connect 519 0 464 0;
#X connect 520 0 522 0;
#X connect 521 0 522 1;
#X connect 522 0 467 0;
#X connect 523 0 525 0;
#X connect 524 0 525 1;
#X connect 525 0 470 0;
#X connect 526 0 528 0;
#X connect 527 0 528 1;
#X connect 528 0 473 0;
#X connect 529 0 531 0;
#X connect 530 0 531 1;
#X connect 531 0 475 0;
#X connect 532 0 534 0;
#X connect 533 0 534 1;
#X connect 534 0 477 0;
#X connect 535 0 537 0;
#X connect 536 0 537 1;
#X connect 537 0 479 0;
#X connect 538 0 540 0;
#X connect 539 0 540 1;
#X connect 540 0 485 0;
#X connect 541 0 543 0;
#X connect 542 0 543 1;
#X connect 543 0 487 0;
#X connect 544 0 546 0;
#X connect 545 0 546 1;
#X connect 546 0 489 0;
#X connect 547 0 549 0;
#X connect 548 0 549 1;
#X connect 549 0 491 0;
#X connect 550 0 552 0;
#X connect 551 0 552 1;
#X connect 552 0 493 0;
#X connect 553 0 555 0;
#X connect 554 0 555 1;
#X connect 555 0 495 0;
#X connect 556 0 558 0;
#X connect 557 0 558 1;
#X connect 558 0 497 0;
#X connect 559 0 561 0;
#X connect 560 0 561 1;
#X connect 561 0 499 0;
#X connect 562 0 460 0;
#X connect 562 0 460 1;
#X connect 563 0 572 1;
#X connect 564 1 572 0;
#X connect 564 2 565 0;
#X connect 564 3 566 0;
#X connect 564 4 593 0;
#X connect 564 5 571 0;
#X connect 564 6 576 0;
#X connect 565 0 512 0;
#X connect 566 0 512 0;
#X connect 567 0 569 0;
#X connect 568 0 571 1;
#X connect 569 0 570 0;
#X connect 570 0 512 0;
#X connect 571 0 567 0;
#X connect 572 0 515 0;
#X connect 573 0 575 0;
#X connect 574 0 576 1;
#X connect 575 0 577 0;
#X connect 576 0 573 0;
#X connect 577 0 512 0;
#X connect 578 0 677 0;
#X connect 579 0 578 1;
#X connect 580 0 579 0;
#X connect 581 0 580 0;
#X connect 582 0 581 0;
#X connect 583 0 678 0;
#X connect 584 0 583 1;
#X connect 585 0 584 0;
#X connect 586 0 585 0;
#X connect 587 0 586 0;
#X connect 588 0 679 0;
#X connect 589 0 588 1;
#X connect 590 0 589 0;
#X connect 591 0 590 0;
#X connect 592 0 591 0;
#X connect 593 0 512 0;
#X connect 594 0 680 0;
#X connect 595 0 594 1;
#X connect 596 0 595 0;
#X connect 597 0 596 0;
#X connect 598 0 597 0;
#X connect 599 0 681 0;
#X connect 600 0 599 1;
#X connect 601 0 600 0;
#X connect 602 0 601 0;
#X connect 603 0 602 0;
#X connect 604 0 682 0;
#X connect 605 0 604 1;
#X connect 606 0 605 0;
#X connect 607 0 606 0;
#X connect 608 0 607 0;
#X connect 609 0 683 0;
#X connect 610 0 609 1;
#X connect 611 0 610 0;
#X connect 612 0 611 0;
#X connect 613 0 612 0;
#X connect 614 0 684 0;
#X connect 615 0 614 1;
#X connect 616 0 615 0;
#X connect 617 0 616 0;
#X connect 618 0 617 0;
#X connect 619 0 692 0;
#X connect 620 0 619 1;
#X connect 621 0 620 0;
#X connect 622 0 621 0;
#X connect 623 0 622 0;
#X connect 624 0 691 0;
#X connect 625 0 624 1;
#X connect 626 0 625 0;
#X connect 627 0 626 0;
#X connect 628 0 627 0;
#X connect 629 0 690 0;
#X connect 630 0 629 1;
#X connect 631 0 630 0;
#X connect 632 0 631 0;
#X connect 633 0 632 0;
#X connect 634 0 689 0;
#X connect 635 0 634 1;
#X connect 636 0 635 0;
#X connect 637 0 636 0;
#X connect 638 0 637 0;
#X connect 639 0 688 0;
#X connect 640 0 639 1;
#X connect 641 0 640 0;
#X connect 642 0 641 0;
#X connect 643 0 642 0;
#X connect 644 0 687 0;
#X connect 645 0 644 1;
#X connect 646 0 645 0;
#X connect 647 0 646 0;
#X connect 648 0 647 0;
#X connect 649 0 686 0;
#X connect 650 0 649 1;
#X connect 651 0 650 0;
#X connect 652 0 651 0;
#X connect 653 0 652 0;
#X connect 654 0 685 0;
#X connect 655 0 654 1;
#X connect 656 0 655 0;
#X connect 657 0 656 0;
#X connect 658 0 657 0;
#X connect 675 0 509 0;
#X connect 676 0 562 0;
#X connect 693 0 564 0;
#X connect 694 0 676 0;
